<?xml version="1.0" encoding="UTF-8" standalone="no"?>
<!-- Created with Inkscape (http://www.inkscape.org/) -->

<svg
   xmlns:dc="http://purl.org/dc/elements/1.1/"
   xmlns:cc="http://creativecommons.org/ns#"
   xmlns:rdf="http://www.w3.org/1999/02/22-rdf-syntax-ns#"
   xmlns:svg="http://www.w3.org/2000/svg"
   xmlns="http://www.w3.org/2000/svg"
   xmlns:sodipodi="http://sodipodi.sourceforge.net/DTD/sodipodi-0.dtd"
   xmlns:inkscape="http://www.inkscape.org/namespaces/inkscape"
   width="235"
   height="235"
   viewBox="0 0 62.177081 62.177086"
   version="1.1"
   id="svg5118"
   inkscape:version="0.92.1 r15371"
   sodipodi:docname="chim-chim_korean.svg">
  <defs
     id="defs5112" />
  <sodipodi:namedview
     id="base"
     pagecolor="#ffffff"
     bordercolor="#666666"
     borderopacity="1.0"
     inkscape:pageopacity="0.0"
     inkscape:pageshadow="2"
     inkscape:zoom="0.35"
     inkscape:cx="-114.28571"
     inkscape:cy="560"
     inkscape:document-units="mm"
     inkscape:current-layer="layer1"
     showgrid="false"
     units="px"
     inkscape:window-width="1920"
     inkscape:window-height="1017"
     inkscape:window-x="-8"
     inkscape:window-y="-8"
     inkscape:window-maximized="1" />
  <metadata
     id="metadata5115">
    <rdf:RDF>
      <cc:Work
         rdf:about="">
        <dc:format>image/svg+xml</dc:format>
        <dc:type
           rdf:resource="http://purl.org/dc/dcmitype/StillImage" />
        <dc:title></dc:title>
      </cc:Work>
    </rdf:RDF>
  </metadata>
  <g
     inkscape:label="Layer 1"
     inkscape:groupmode="layer"
     id="layer1"
     transform="translate(0,-234.82289)">
    <g
       id="g5720"
       transform="matrix(0.26458333,0,0,0.26458333,-185.51471,218.46136)">
      <circle
         id="ellipse5714"
         cy="179.60001"
         cx="818.29999"
         transform="matrix(0.03038386,-0.9995,0.9995,0.03038386,613.9275,992.1299)"
         r="110.6" />
      <path
         id="path5716"
         d="m 769,219.1 c -2.5,0 -4.5,2 -4.5,4.5 0,2.5 2,4.5 4.5,4.5 2.5,0 4.5,-2 4.5,-4.5 0,-2.5 -2.1,-4.5 -4.5,-4.5 z m 0,8.3 c -2.1,0 -3.7,-1.7 -3.7,-3.7 0,-2.1 1.7,-3.7 3.7,-3.7 2.1,0 3.7,1.7 3.7,3.7 0,2 -1.7,3.7 -3.7,3.7 z m -13.7,-75.6 c 1.8,1.6 3.8,2.8 6.1,3.4 2.1,0.6 4.1,0.9 6.1,0.8 0.7,0 1.4,0 2.1,0 1.5,-0.1 2.7,-0.4 3.8,-0.9 1.1,-0.5 2,-0.9 2.8,-1.4 0.3,-0.2 0.5,-0.4 0.8,-0.5 v 10.1 c 0,1.3 0.2,2.4 0.5,3.2 0.3,0.8 0.8,1.5 1.5,2 0.6,0.5 1.4,0.8 2.2,1 0.8,0.2 1.8,0.2 2.8,0.2 h 4.5 v -46.4 c 0,-1.3 -0.2,-2.4 -0.5,-3.2 -0.3,-0.9 -0.8,-1.5 -1.5,-2 -0.6,-0.5 -1.4,-0.8 -2.2,-1 -0.8,-0.2 -1.8,-0.2 -2.8,-0.2 H 777 v 19.6 c 0,2.4 -0.3,4.3 -0.8,5.9 -0.6,1.6 -1.3,2.8 -2.2,3.8 -0.9,0.9 -1.9,1.6 -3.1,2 -0.8,0.3 -1.5,0.4 -2.3,0.5 -1,-0.1 -2,-0.3 -2.9,-0.7 -1,-0.4 -1.9,-1.1 -2.6,-2.1 -0.8,-1 -1.3,-2.3 -1.8,-4 -0.4,-1.7 -0.6,-3.8 -0.6,-6.3 v -6.9 -6 c 0,-0.6 0,-1.2 -0.1,-1.7 v -0.1 c -0.1,-0.6 -0.2,-1.1 -0.4,-1.5 -0.3,-0.8 -0.8,-1.5 -1.4,-2 -0.6,-0.5 -1.3,-0.8 -2.2,-1 -0.8,-0.2 -1.8,-0.2 -2.8,-0.2 h -4.6 v 14.5 5.3 c 0,3.6 0.6,6.7 1.7,9.3 1.2,2.8 2.6,4.9 4.4,6.5 z m 15,73.1 c -0.1,-0.3 -0.2,-0.5 -0.3,-0.6 -0.1,-0.1 -0.1,-0.2 -0.1,-0.3 0,0 0,-0.1 0,-0.1 0,0 0,0 0,-0.1 0.1,-0.1 0.2,-0.2 0.3,-0.3 0.1,-0.1 0.2,-0.2 0.3,-0.4 0.1,-0.1 0.1,-0.3 0.2,-0.4 0,-0.1 0.1,-0.3 0.1,-0.4 0,-0.5 -0.1,-0.8 -0.4,-1.1 -0.3,-0.3 -0.7,-0.4 -1.2,-0.4 h -1.5 c -0.1,0 -0.1,0 -0.1,0.1 v 5.1 c 0,0.1 0,0.1 0.1,0.1 h 0.5 c 0.1,0 0.1,0 0.1,-0.1 v -2 c 0,-0.1 0,-0.1 0.1,-0.1 h 0.8 c 0,0 0.1,0 0.1,0 0,0 0,0 0,0.1 l 0.9,1.9 c 0,0.1 0.1,0.1 0.1,0.1 0,0 0.1,0 0.2,0 h 0.4 c 0,0 0.1,0 0.1,0 0,0 0,-0.1 0,-0.2 -0.4,-0.2 -0.6,-0.6 -0.7,-0.9 z m -0.8,-1.5 c -0.1,0 -0.1,0 0,0 -0.1,0 -0.1,0 -0.1,0 h -1.1 c 0,0 -0.1,0 -0.1,-0.1 v -1.7 c 0,0 0,-0.1 0.1,-0.1 h 0.7 c 0.2,0 0.4,0 0.5,0.1 0.1,0.1 0.2,0.1 0.3,0.2 0.1,0.1 0.1,0.2 0.1,0.3 0,0.1 0,0.2 0,0.3 0,0.1 0,0.3 -0.1,0.5 -0.1,0.3 -0.2,0.4 -0.3,0.5 z m 62.2,-47.7 c -0.6,-0.5 -1.4,-0.8 -2.2,-0.9 -0.8,-0.2 -1.8,-0.2 -2.8,-0.2 h -4.5 v 34.1 c 0,2.4 -0.3,4.4 -0.8,6 -0.6,1.6 -1.3,2.8 -2.2,3.8 -0.9,1 -1.9,1.6 -3.1,2 -0.8,0.2 -1.5,0.4 -2.3,0.4 -1,-0.1 -2,-0.3 -2.9,-0.7 -1,-0.4 -1.9,-1.1 -2.6,-2.1 -0.8,-1 -1.3,-2.3 -1.8,-3.9 -0.4,-1.6 -0.6,-3.8 -0.6,-6.3 V 181 c 0,-1.3 -0.2,-2.4 -0.5,-3.2 -0.3,-0.8 -0.8,-1.5 -1.5,-2 -0.6,-0.5 -1.4,-0.8 -2.2,-0.9 -0.8,-0.2 -1.8,-0.2 -2.8,-0.2 h -4.5 v 33.7 c 0,3.6 0.6,6.7 1.7,9.3 1.1,2.6 2.6,4.7 4.4,6.3 1.8,1.6 3.8,2.8 6.1,3.5 2.1,0.6 4.1,0.9 6.2,0.8 0.7,0 1.4,0 2.1,0 1.2,-0.1 2.3,-0.3 3.3,-0.7 1,-0.4 1.9,-0.8 2.7,-1.2 0.8,-0.5 1.4,-0.9 2,-1.4 h 0.1 c 0.5,0.9 1.2,1.6 2,1.9 1.2,0.5 2.6,0.7 4.2,0.7 h 4.5 V 181 c 0,-1.3 -0.2,-2.4 -0.5,-3.2 -0.3,-0.9 -0.8,-1.6 -1.5,-2.1 z m 53.8,0.1 c -0.6,-0.5 -1.4,-0.8 -2.2,-1 -0.8,-0.2 -1.7,-0.2 -2.7,-0.2 h -5 l -11.8,30.3 -8.9,-22.6 c -1,-2 -2.1,-3.5 -3.3,-4.5 -1.2,-1 -2.4,-1.8 -3.7,-2.3 -1.3,-0.5 -2.5,-0.7 -3.7,-0.8 -1.2,-0.1 -1.2,0 -2.1,0 h -2.2 v 46.4 c 0,1.3 0.2,2.4 0.5,3.2 0.3,0.8 0.8,1.5 1.4,2 0.6,0.5 1.4,0.8 2.2,1 0.8,0.2 1.7,0.2 2.7,0.2 h 3.6 l 0.1,-29.2 7.6,19.7 c 1.1,2.2 1.8,3.5 4,4.9 0.8,0.5 1.6,0.9 2.3,1 0.8,0.2 2.5,0.2 3.3,0 3.5,-8.9 6.1,-17.8 9.6,-26.7 l 0.1,23.6 c 0,1.3 0.2,2.4 0.5,3.2 0.3,0.9 0.8,1.5 1.4,2 0.6,0.5 1.4,0.8 2.2,1 0.8,0.2 1.7,0.3 2.7,0.3 l 3.4,0.1 V 181 c 0,-1.3 -0.2,-2.4 -0.5,-3.2 -0.3,-0.8 -0.8,-1.5 -1.5,-2 z m 1.5,-55.7 c -0.3,-0.8 -0.8,-1.5 -1.4,-2 -0.6,-0.5 -1.4,-0.8 -2.2,-1 -0.8,-0.2 -1.7,-0.2 -2.7,-0.2 h -5 l -11.8,30.3 -8.9,-22.6 c -1,-2 -2.1,-3.5 -3.3,-4.5 -1.2,-1 -2.4,-1.8 -3.7,-2.3 -1.3,-0.5 -2.5,-0.7 -3.7,-0.8 -1.2,-0.1 -1.2,0 -2.1,0 H 840 v 46.4 c 0,1.3 0.2,2.4 0.5,3.2 0.3,0.8 0.8,1.5 1.4,2 0.6,0.5 1.4,0.8 2.2,1 0.8,0.2 1.7,0.2 2.7,0.2 h 3.7 v -29.2 l 7.6,19.7 c 1.1,2.2 1.8,3.5 4,4.8 0.8,0.5 1.6,0.9 2.3,1 0.8,0.2 2.5,0.2 3.3,0 3.5,-8.9 6.1,-17.8 9.6,-26.7 l 0.1,23.6 c 0,1.3 0.2,2.4 0.5,3.2 0.3,0.9 0.8,1.5 1.4,2 0.6,0.5 1.4,0.8 2.2,1 0.8,0.2 1.7,0.2 2.7,0.2 l 3.4,0.1 v -46.4 c -0.1,-1 -0.3,-2.1 -0.6,-3 z m -100.5,56 c -0.6,-0.5 -1.4,-0.8 -2.2,-1 -0.8,-0.2 -1.8,-0.2 -2.8,-0.2 h -4.6 v 19.9 c 0,2.4 -0.3,4.3 -0.8,5.9 -0.6,1.6 -1.3,2.9 -2.2,3.8 -0.9,0.9 -1.9,1.6 -3.1,2 -0.8,0.3 -1.5,0.4 -2.3,0.5 -1,-0.1 -2,-0.3 -2.9,-0.7 -1,-0.4 -1.9,-1.1 -2.6,-2.1 -0.8,-1 -1.3,-2.3 -1.8,-4 -0.4,-1.7 -0.6,-3.8 -0.6,-6.3 v -12.7 c 0,-1.3 -0.2,-2.4 -0.5,-3.2 -0.3,-0.8 -0.8,-1.5 -1.5,-2 -0.6,-0.5 -1.4,-0.8 -2.2,-1 -0.8,-0.2 -1.8,-0.2 -2.8,-0.2 h -4.5 v 19.6 c 0,3.6 0.6,6.7 1.7,9.3 1.1,2.6 2.6,4.7 4.4,6.3 1.8,1.6 3.8,2.8 6.1,3.4 2.1,0.6 4.1,0.9 6.1,0.8 0.7,0 1.4,0 2.1,0 1.5,-0.1 2.7,-0.4 3.8,-0.9 1.1,-0.5 2,-0.9 2.8,-1.4 0.3,-0.2 0.5,-0.4 0.8,-0.5 v 10.1 c 0,1.3 0.2,2.4 0.5,3.2 0.3,0.8 0.8,1.5 1.5,2 0.6,0.5 1.4,0.8 2.2,1 0.8,0.2 1.8,0.2 2.8,0.2 h 4.5 l 0.1,-46.7 c 0,-1.3 -0.2,-2.4 -0.5,-3.2 -0.3,-0.7 -0.8,-1.4 -1.5,-1.9 z m 45.2,-58.6 c -0.6,-0.5 -1.4,-0.8 -2.2,-0.9 -0.8,-0.2 -1.8,-0.2 -2.8,-0.2 h -4.5 v 34.1 c 0,2.4 -0.3,4.4 -0.8,6 -0.6,1.6 -1.3,2.8 -2.2,3.8 -0.9,1 -1.9,1.6 -3.1,2 -0.8,0.2 -1.5,0.4 -2.3,0.4 -1,-0.1 -2,-0.3 -2.9,-0.7 -1,-0.4 -1.9,-1.1 -2.6,-2.1 -0.8,-1 -1.3,-2.3 -1.8,-3.9 -0.4,-1.6 -0.6,-3.8 -0.6,-6.3 v -26.8 c 0,-1.3 -0.2,-2.4 -0.5,-3.2 -0.3,-0.8 -0.8,-1.5 -1.5,-2 -0.6,-0.5 -1.4,-0.8 -2.2,-0.9 -0.8,-0.2 -1.8,-0.2 -2.8,-0.2 h -4.5 v 33.7 c 0,3.6 0.6,6.7 1.7,9.3 1.1,2.6 2.6,4.7 4.4,6.3 1.8,1.6 3.8,2.8 6.1,3.4 2.1,0.6 4.1,0.9 6.2,0.8 0.7,0 1.4,0 2.1,0 1.2,-0.1 2.3,-0.3 3.3,-0.7 1,-0.4 1.9,-0.8 2.7,-1.2 0.8,-0.5 1.4,-0.9 2,-1.4 h 0.1 c 0.5,0.9 1.2,1.6 2,1.9 1.2,0.5 2.6,0.7 4.2,0.7 h 4.5 v -46.5 c 0,-1.3 -0.2,-2.4 -0.5,-3.2 -0.3,-1.1 -0.8,-1.7 -1.5,-2.2 z"
         class="st0"
         inkscape:connector-curvature="0"
         style="fill:#ffffff" />
      <path
         id="path5718"
         d="m 864.9,233.9 c 0,-0.1 0,-0.1 0.1,-0.1 h 0.7 c 0.1,0 0.1,0 0.1,0.1 v 5.4 c 0,0 0,0 0,0 0,0 0,0 0,0 l 2.8,-5.3 c 0,-0.1 0.1,-0.1 0.1,-0.1 0,0 0.1,-0.1 0.2,-0.1 h 0.6 c 0.1,0 0.1,0 0.1,0.1 v 7.2 c 0,0.1 0,0.1 -0.1,0.1 h -0.7 c -0.1,0 -0.1,0 -0.1,-0.1 v -5.4 c 0,0 0,0 0,0 -0.4,0.9 -0.9,1.8 -1.4,2.7 -0.5,0.9 -1,1.8 -1.4,2.7 0,0.1 -0.1,0.1 -0.1,0.2 0,0 -0.1,0 -0.2,0 h -0.5 c -0.1,0 -0.1,0 -0.1,-0.1 v -7.3 z m -1.4,7.2 c 0,0.1 0,0.1 -0.1,0.1 h -0.7 c -0.1,0 -0.1,0 -0.1,-0.1 v -4.7 c 0,0 0,0 0,0 0,0 0,0 0,0 l -0.5,1.4 -1.2,3 c 0,0 0,0.1 -0.1,0.1 0,0 -0.1,0.1 -0.2,0.1 h -0.5 c -0.1,0 -0.1,0 -0.2,0 0,0 -0.1,-0.1 -0.1,-0.1 l -1.1,-2.9 -0.5,-1.5 c 0,0 0,0 0,0 v 4.7 c 0,0.1 0,0.1 -0.1,0.1 h -0.7 c -0.1,0 -0.1,0 -0.1,-0.1 V 234 c 0,-0.2 0.1,-0.2 0.2,-0.2 h 0.5 c 0.1,0 0.2,0 0.2,0 0,0 0.1,0.1 0.1,0.1 l 1.6,4.3 0.5,1.3 c 0,0.1 0.1,0.1 0.1,0 0.1,-0.2 0.2,-0.4 0.2,-0.7 0.1,-0.2 0.2,-0.5 0.2,-0.7 l 1.6,-4.3 c 0,-0.1 0.1,-0.1 0.1,-0.1 0,0 0.1,0 0.2,0 h 0.5 c 0.1,0 0.1,0 0.2,0.1 0,0 0,0.1 0,0.2 z m -10.1,-4.8 -0.5,2.2 c 0,0 0,0.1 0,0.1 0,0 0,0 0.1,0 h 1.7 c 0,0 0.1,0 0.1,0 0,0 0,0 0,-0.1 l -0.5,-2.2 -0.3,-1.5 c 0,0 0,0 0,0 0,0 0,0 0,0 z m 2,4.9 c -0.1,0 -0.2,0 -0.2,-0.1 l -0.4,-1.6 c 0,0 0,0 0,0 h -2.1 c 0,0 -0.1,0 -0.1,0 0,0 0,0 0,0 l -0.4,1.6 c 0,0.1 -0.1,0.1 -0.2,0.1 h -0.7 c -0.1,0 -0.1,0 -0.1,0 0,0 0,-0.1 0,-0.1 l 1.8,-7.2 c 0,0 0,-0.1 0.1,-0.1 0,0 0.1,0 0.1,0 h 1 c 0.1,0 0.2,0 0.2,0.1 l 1.8,7.2 c 0,0 0,0.1 0,0.1 0,0 0,0.1 -0.1,0.1 h -0.7 z m -5.3,-1 c 0,0.1 0,0.1 0,0 0,0.1 0,0.1 0.1,0.1 h 0.4 c 0.1,0 0.2,0 0.2,0.1 0,0.1 0,0.1 0,0.2 v 2.1 c 0,0.1 0,0.2 -0.1,0.2 0,0 -0.1,0 -0.1,0 h -0.5 c -0.1,0 -0.1,0 -0.1,0 0,0 -0.1,-0.1 -0.1,-0.2 v -1.4 c 0,-0.1 0,-0.1 -0.1,-0.1 0,0 -0.1,0 -0.1,0 h -4.4 c -0.1,0 -0.1,0 -0.1,-0.1 v -7.2 c 0,-0.1 0,-0.1 0.1,-0.1 h 0.7 c 0.1,0 0.1,0 0.1,0.1 v 6.4 c 0,0.1 0,0.1 0.1,0.1 h 2.7 c 0.1,0 0.1,0 0.1,-0.1 v -6.4 c 0,-0.1 0,-0.1 0.1,-0.1 h 0.7 c 0.1,0 0.1,0 0.1,0.1 v 6.3 z m -11.4,-6.3 c 0,-0.1 0,-0.1 0.1,-0.1 h 0.7 c 0.1,0 0.1,0 0.1,0.1 v 5.4 c 0,0 0,0 0,0 0,0 0,0 0,0 l 2.8,-5.3 c 0,-0.1 0.1,-0.1 0.1,-0.1 0,0 0.1,-0.1 0.2,-0.1 h 0.6 c 0.1,0 0.1,0 0.1,0.1 v 7.2 c 0,0.1 0,0.1 -0.1,0.1 h -0.7 c -0.1,0 -0.1,0 -0.1,-0.1 v -5.4 c 0,0 0,0 0,0 -0.4,0.9 -0.9,1.8 -1.4,2.7 -0.5,0.9 -1,1.8 -1.4,2.7 0,0.1 -0.1,0.1 -0.1,0.2 0,0 -0.1,0 -0.2,0 h -0.5 c -0.1,0 -0.1,0 -0.1,-0.1 v -7.3 z m -1.1,7.2 c 0,0.1 0,0.1 -0.1,0.1 h -4 c -0.1,0 -0.1,0 -0.1,-0.1 v -7.2 c 0,-0.1 0,-0.1 0.1,-0.1 h 3.9 c 0.1,0 0.2,0 0.2,0.1 v 0.6 c 0,0.1 0,0.1 -0.1,0.1 h -2.9 c -0.1,0 -0.1,0 -0.1,0.1 v 2.1 c 0,0.1 0,0.1 0.1,0.1 h 2.4 c 0.1,0 0.1,0 0.1,0.1 v 0.6 c 0,0.1 0,0.1 -0.1,0.1 h -2.4 c -0.1,0 -0.1,0 -0.1,0.1 v 2.4 c 0,0.1 0,0.1 0.1,0.1 h 3 c 0.1,0 0.1,0 0.1,0.1 v 0.7 z m -8.7,-6.5 c -0.1,0 -0.1,0 -0.1,0.1 v 2.5 c 0,0.1 0,0.1 0.1,0.1 h 1.1 c 0.4,0 0.7,-0.1 0.9,-0.4 0.2,-0.2 0.3,-0.6 0.3,-1 0,-0.2 0,-0.3 -0.1,-0.5 -0.1,-0.2 -0.1,-0.3 -0.2,-0.4 -0.1,-0.1 -0.2,-0.2 -0.4,-0.3 -0.2,-0.1 -0.3,-0.1 -0.6,-0.1 z m 3.4,1.4 c 0,0.3 -0.1,0.6 -0.2,0.8 -0.1,0.3 -0.3,0.5 -0.5,0.7 -0.2,0.2 -0.4,0.4 -0.7,0.5 -0.3,0.1 -0.6,0.2 -0.9,0.2 h -1.1 c -0.1,0 -0.1,0 -0.1,0.1 v 2.8 c 0,0.1 -0.1,0.1 -0.1,0.1 H 828 c -0.1,0 -0.1,0 -0.1,-0.1 v -7.2 c 0,-0.1 0,-0.1 0.1,-0.1 h 2.1 c 0.4,0 0.7,0.1 1,0.2 0.3,0.1 0.5,0.3 0.7,0.5 0.2,0.2 0.3,0.4 0.4,0.7 0.1,0.1 0.1,0.4 0.1,0.8 z m -7,-0.3 c 0,-0.3 -0.1,-0.6 -0.4,-0.9 -0.2,-0.2 -0.5,-0.3 -0.9,-0.3 -0.4,0 -0.7,0.1 -0.9,0.3 -0.2,0.2 -0.4,0.5 -0.4,0.9 v 3.5 c 0,0.4 0.1,0.7 0.3,0.9 0.2,0.2 0.5,0.3 0.9,0.3 0.4,0 0.7,-0.1 1,-0.3 0.2,-0.2 0.3,-0.5 0.3,-0.9 v -3.5 z m 1,3.5 c 0,0.3 -0.1,0.6 -0.2,0.9 -0.1,0.3 -0.3,0.5 -0.5,0.6 -0.2,0.2 -0.5,0.3 -0.7,0.4 -0.3,0.1 -0.6,0.1 -0.9,0.1 -0.3,0 -0.6,0 -0.9,-0.1 -0.3,-0.1 -0.5,-0.2 -0.7,-0.4 -0.2,-0.2 -0.4,-0.4 -0.5,-0.6 -0.1,-0.3 -0.2,-0.6 -0.2,-0.9 v -3.5 c 0,-0.3 0.1,-0.6 0.2,-0.9 0.1,-0.3 0.3,-0.5 0.5,-0.7 0.2,-0.2 0.5,-0.3 0.7,-0.4 0.3,-0.1 0.6,-0.1 0.9,-0.1 0.3,0 0.6,0 0.9,0.1 0.3,0.1 0.5,0.2 0.7,0.4 0.2,0.2 0.4,0.4 0.5,0.6 0.1,0.3 0.2,0.6 0.2,0.9 z m -5.9,-5.5 c 0.1,0 0.1,0 0.1,0.1 0,0 0,0.1 0,0.1 l -2.2,2.8 c 0,0 0,0.1 0,0.1 0,0 0,0 0.1,0 0.1,0 0.1,0 0.2,0 0.1,0 0.1,0 0.1,0 0.6,0 1,0.2 1.3,0.6 0.3,0.3 0.4,0.8 0.5,1.4 l 0.2,2.3 c 0,0.1 0,0.1 -0.1,0.1 h -0.7 c -0.1,0 -0.1,0 -0.1,-0.1 l -0.1,-2.2 c 0,-0.1 0,-0.3 -0.1,-0.4 0,-0.2 -0.1,-0.3 -0.2,-0.5 -0.1,-0.1 -0.2,-0.3 -0.4,-0.3 -0.2,-0.1 -0.4,-0.1 -0.7,-0.1 -0.5,0 -0.8,0.1 -1,0.4 -0.2,0.3 -0.4,0.6 -0.4,1 v 2.1 c 0,0.1 0,0.1 -0.1,0.1 H 816 c -0.1,0 -0.1,0 -0.1,-0.1 v -7.3 c 0,-0.1 0,-0.1 0.1,-0.1 h 0.8 c 0.1,0 0.1,0 0.1,0.1 v 3 c 0,0.1 0,0.1 0.1,0.1 0,0 0.1,0 0.1,-0.1 l 2.5,-3.1 c 0.1,-0.1 0.1,-0.1 0.2,-0.1 h 0.6 z m -11.3,2 c 0,-0.3 -0.1,-0.6 -0.4,-0.9 -0.2,-0.2 -0.5,-0.3 -0.9,-0.3 -0.4,0 -0.7,0.1 -0.9,0.3 -0.2,0.2 -0.3,0.5 -0.3,0.9 v 3.5 c 0,0.4 0.1,0.7 0.3,0.9 0.2,0.2 0.5,0.3 1,0.3 0.4,0 0.7,-0.1 1,-0.3 0.2,-0.2 0.3,-0.5 0.3,-0.9 v -3.5 z m 1,3.5 c 0,0.3 -0.1,0.6 -0.2,0.9 -0.1,0.3 -0.3,0.5 -0.5,0.6 -0.2,0.2 -0.5,0.3 -0.7,0.4 -0.3,0.1 -0.6,0.1 -0.9,0.1 -0.3,0 -0.6,0 -0.9,-0.1 -0.3,-0.1 -0.5,-0.2 -0.7,-0.4 -0.2,-0.2 -0.4,-0.4 -0.5,-0.6 -0.1,-0.3 -0.2,-0.6 -0.2,-0.9 v -3.5 c 0,-0.3 0.1,-0.6 0.2,-0.9 0.1,-0.3 0.3,-0.5 0.5,-0.7 0.2,-0.2 0.4,-0.3 0.7,-0.4 0.3,-0.1 0.6,-0.1 0.9,-0.1 0.3,0 0.6,0 0.9,0.1 0.3,0.1 0.5,0.2 0.7,0.4 0.2,0.2 0.4,0.4 0.5,0.6 0.1,0.3 0.2,0.6 0.2,0.9 z m -5.7,1.9 c 0,0.1 0,0.1 -0.1,0.1 h -0.7 c -0.1,0 -0.1,0 -0.1,-0.1 v -3.2 c 0,-0.1 0,-0.1 -0.1,-0.1 h -2.6 c -0.1,0 -0.1,0 -0.1,0.1 v 3.2 c 0,0.1 0,0.1 -0.1,0.1 h -0.7 c -0.1,0 -0.1,0 -0.1,-0.1 v -7.2 c 0,-0.1 0,-0.1 0.1,-0.1 h 0.7 c 0.1,0 0.1,0 0.1,0.1 v 2.9 c 0,0.1 0,0.1 0.1,0.1 h 2.6 c 0.1,0 0.1,0 0.1,-0.1 v -2.9 c 0,-0.1 0,-0.1 0.1,-0.1 h 0.7 c 0.1,0 0.2,0 0.2,0.1 v 7.2 z m -8.8,-4.8 -0.5,2.2 c 0,0 0,0.1 0,0.1 0,0 0,0 0.1,0 h 1.7 c 0,0 0.1,0 0.1,0 0,0 0,0 0,-0.1 l -0.5,-2.2 -0.3,-1.5 c 0,0 0,0 0,0 0,0 0,0 0,0 z m 2.1,4.9 c -0.1,0 -0.2,0 -0.2,-0.1 l -0.4,-1.6 c 0,0 0,0 0,0 H 795 c 0,0 -0.1,0 -0.1,0 0,0 0,0 0,0 l -0.4,1.6 c 0,0.1 -0.1,0.1 -0.2,0.1 h -0.7 c -0.1,0 -0.1,0 -0.1,0 0,0 0,-0.1 0,-0.1 l 1.8,-7.2 c 0,0 0,-0.1 0.1,-0.1 0,0 0.1,0 0.1,0 h 1 c 0.1,0 0.2,0 0.2,0.1 l 1.8,7.2 c 0,0 0,0.1 0,0.1 0,0 0,0.1 -0.1,0.1 h -0.7 z m -8.3,-6.6 c -0.1,0 -0.1,0 -0.1,0.1 v 1.6 c 0,0.9 0,1.7 -0.1,2.3 -0.1,0.6 -0.2,1.1 -0.3,1.4 -0.1,0.4 -0.3,0.7 -0.6,0.9 -0.2,0.2 -0.6,0.4 -0.9,0.5 0,0 0,0 -0.1,0 -0.1,0 -0.1,0 -0.1,-0.1 l -0.2,-0.5 c 0,0 0,0 0,0 0,0 0,0 0,0 0,0 0,-0.1 0,-0.1 0,0 0.1,-0.1 0.1,-0.1 0.2,-0.1 0.3,-0.2 0.4,-0.2 0.1,-0.1 0.2,-0.2 0.3,-0.3 0.1,-0.1 0.2,-0.3 0.2,-0.5 0.1,-0.2 0.1,-0.4 0.2,-0.7 0,-0.3 0.1,-0.7 0.1,-1.1 0,-0.4 0,-0.9 0,-1.5 V 234 c 0,-0.1 0,-0.1 0.1,-0.1 h 3.7 c 0.1,0 0.1,0 0.1,0.1 v 7.2 c 0,0.1 -0.1,0.1 -0.1,0.1 h -0.7 c -0.1,0 -0.1,0 -0.1,-0.1 v -6.4 c 0,-0.1 0,-0.1 -0.1,-0.1 h -1.8 z m -2.9,6.5 c 0,0.1 0,0.1 -0.1,0.1 h -4 c -0.1,0 -0.1,0 -0.1,-0.1 v -7.2 c 0,-0.1 0,-0.1 0.1,-0.1 h 3.9 c 0.1,0 0.2,0 0.2,0.1 v 0.6 c 0,0.1 0,0.1 -0.1,0.1 h -2.9 c -0.1,0 -0.1,0 -0.1,0.1 v 2.1 c 0,0.1 0,0.1 0.1,0.1 h 2.4 c 0.1,0 0.1,0 0.1,0.1 v 0.6 c 0,0.1 0,0.1 -0.1,0.1 h -2.4 c -0.1,0 -0.1,0 -0.1,0.1 v 2.4 c 0,0.1 0,0.1 0.1,0.1 h 3 c 0.1,0 0.1,0 0.1,0.1 v 0.7 z m -8.7,-6.5 c -0.1,0 -0.1,0 0,0 -0.1,0.1 -0.1,0.1 -0.1,0.1 0,0.3 0,0.6 0,0.9 0,0.4 0,0.7 -0.1,1.1 0,0.4 0,0.7 -0.1,1 0,0.3 0,0.6 -0.1,0.9 0,0.1 0,0.2 -0.1,0.4 0,0.1 -0.1,0.3 -0.1,0.4 0,0.1 -0.1,0.3 -0.1,0.4 -0.1,0.1 -0.1,0.3 -0.2,0.4 0,0 0,0.1 0.1,0.1 h 2.7 c 0,0 0,0 0.1,0 0,0 0,0 0,-0.1 v -5.5 c 0,-0.1 0,-0.1 -0.2,-0.1 z m -1.6,8.1 c 0,0.1 0,0.2 -0.1,0.2 0,0 -0.1,0 -0.1,0 h -0.6 c -0.1,0 -0.1,0 -0.1,0 0,0 0,-0.1 -0.1,-0.1 v -2 c 0,-0.1 0,-0.2 0.1,-0.2 0,0 0.1,-0.1 0.2,-0.1 l 0.2,-0.1 c 0.2,-0.1 0.4,-0.3 0.5,-0.6 0.1,-0.3 0.2,-0.7 0.3,-1.1 0,-0.2 0.1,-0.5 0.1,-0.8 0,-0.3 0,-0.6 0.1,-0.9 0,-0.4 0,-0.8 0.1,-1.3 0,-0.5 0,-1.1 0.1,-1.7 0,-0.1 0,-0.1 0.1,-0.2 0,0 0.1,0 0.2,0 h 3.6 c 0.1,0 0.1,0 0.2,0 0,0 0.1,0.1 0.1,0.2 v 6.3 c 0,0 0,0 0,0.1 0,0 0,0 0.1,0 h 0.3 c 0.1,0 0.1,0 0.2,0.1 0,0 0,0.1 0,0.2 v 2.1 c 0,0.1 0,0.2 -0.1,0.2 0,0 -0.1,0 -0.1,0 H 781 c -0.1,0 -0.1,0 -0.1,0 0,0 0,-0.1 -0.1,-0.2 v -1.4 c 0,-0.1 0,-0.1 -0.1,-0.1 0,0 -0.1,0 -0.1,0 h -4 c -0.1,0 -0.1,0 -0.1,0 0,0 0,0.1 0,0.1 v 1.3 z m 65.1,-9.2 c 0,0.1 -0.1,0.1 -0.1,0.1 h -0.3 c -0.1,0 -0.1,0 -0.1,-0.1 0,0 0,-0.1 0,-0.1 l 0.1,-1.7 c 0,-0.1 0.1,-0.2 0.1,-0.2 h 0.6 c 0.1,0 0.2,0.1 0.1,0.2 z m -66.8,1 c 0,0 0.1,0.1 0.1,0.1 0,0 0,0.1 -0.1,0.1 l -0.5,0.4 c 0,0 -0.1,0 -0.1,0 -0.1,0 -0.1,0 -0.1,-0.1 -0.1,-0.2 -0.3,-0.3 -0.6,-0.5 -0.2,-0.1 -0.5,-0.2 -0.7,-0.2 -0.4,0 -0.7,0.1 -0.9,0.3 -0.2,0.2 -0.3,0.5 -0.3,0.9 v 3.5 c 0,0.3 0.1,0.6 0.3,0.8 0.2,0.2 0.5,0.3 0.9,0.3 0.3,0 0.5,-0.1 0.7,-0.2 0.2,-0.1 0.4,-0.3 0.5,-0.4 0,0 0.1,-0.1 0.1,-0.1 0,0 0.1,0 0.2,0 l 0.5,0.4 c 0,0 0,0 0,0.1 0,0 0,0.1 0,0.1 -0.2,0.3 -0.5,0.6 -0.9,0.7 -0.4,0.2 -0.7,0.2 -1.1,0.2 -0.3,0 -0.6,0 -0.9,-0.1 -0.3,-0.1 -0.5,-0.2 -0.7,-0.4 -0.2,-0.2 -0.4,-0.4 -0.5,-0.6 -0.1,-0.3 -0.2,-0.5 -0.2,-0.9 v -3.5 c 0,-0.3 0.1,-0.6 0.2,-0.9 0.1,-0.3 0.3,-0.5 0.5,-0.7 0.2,-0.2 0.4,-0.3 0.7,-0.4 0.3,-0.1 0.6,-0.1 0.9,-0.1 0.4,0 0.7,0.1 1.1,0.2 0.3,0.4 0.6,0.7 0.9,1 z"
         class="st1"
         inkscape:connector-curvature="0"
         style="clip-rule:evenodd;fill:#ffffff;fill-rule:evenodd" />
    </g>
  </g>
  <style
     id="style5663"
     type="text/css">
	.st0{fill-rule:evenodd;clip-rule:evenodd;fill:#FFFFFF;}
	.st1{fill-rule:evenodd;clip-rule:evenodd;fill:#ED1651;}
</style>
  <style
     id="style5712"
     type="text/css">
	.st0{fill:#FFFFFF;}
	.st1{fill-rule:evenodd;clip-rule:evenodd;fill:#FFFFFF;}
</style>
</svg>
