<?xml version="1.0" encoding="utf-8"?>
<!-- Generator: Adobe Illustrator 22.1.0, SVG Export Plug-In . SVG Version: 6.00 Build 0)  -->
<svg version="1.1" id="Слой_1" xmlns="http://www.w3.org/2000/svg" xmlns:xlink="http://www.w3.org/1999/xlink" x="0px" y="0px"
	 viewBox="0 0 221.1 221.1" style="enable-background:new 0 0 221.1 221.1;" xml:space="preserve">
<style type="text/css">
	.st0{fill:#FFFFFF;}
</style>
<g>
	<circle cx="110.6" cy="110.6" r="110.6"/>
	<path class="st0" d="M61.2,157.4c-2.5,0-4.5,2-4.5,4.5c0,2.5,2,4.5,4.5,4.5c2.5,0,4.5-2,4.5-4.5C65.7,159.5,63.7,157.4,61.2,157.4z
		 M61.2,165.7c-2.1,0-3.7-1.7-3.7-3.7c0-2.1,1.7-3.7,3.7-3.7c2.1,0,3.7,1.7,3.7,3.7C64.9,164,63.2,165.7,61.2,165.7z M47.6,90.1
		c1.8,1.6,3.8,2.8,6.1,3.4c2.1,0.6,4.1,0.9,6.1,0.8c0.7,0,1.4,0,2.1,0c1.5-0.1,2.7-0.4,3.8-0.9c1.1-0.5,2-0.9,2.8-1.4
		c0.3-0.2,0.5-0.4,0.8-0.5v10.1c0,1.3,0.2,2.4,0.5,3.2c0.3,0.8,0.8,1.5,1.5,2c0.6,0.5,1.4,0.8,2.2,1c0.8,0.2,1.8,0.2,2.8,0.2h4.5
		V61.8c0-1.3-0.2-2.4-0.5-3.2c-0.3-0.9-0.8-1.5-1.5-2c-0.6-0.5-1.4-0.8-2.2-1c-0.8-0.2-1.8-0.2-2.8-0.2h-4.5V75
		c0,2.4-0.3,4.3-0.8,5.9c-0.6,1.6-1.3,2.8-2.2,3.8c-0.9,0.9-1.9,1.6-3.1,2c-0.8,0.3-1.5,0.4-2.3,0.5c-1-0.1-2-0.3-2.9-0.7
		c-1-0.4-1.9-1.1-2.6-2.1c-0.8-1-1.3-2.3-1.8-4c-0.4-1.7-0.6-3.8-0.6-6.3v-6.9l0-6c0-0.6,0-1.2-0.1-1.7l0-0.1
		c-0.1-0.6-0.2-1.1-0.4-1.5c-0.3-0.8-0.8-1.5-1.4-2c-0.6-0.5-1.3-0.8-2.2-1C48,54.7,47,54.7,46,54.7l-4.6,0l0,14.5v5.3
		c0,3.6,0.6,6.7,1.7,9.3C44.3,86.4,45.7,88.5,47.6,90.1z M62.5,163.2c-0.1-0.3-0.2-0.5-0.3-0.6c-0.1-0.1-0.1-0.2-0.1-0.3
		c0,0,0-0.1,0-0.1c0,0,0,0,0-0.1c0.1-0.1,0.2-0.2,0.3-0.3c0.1-0.1,0.2-0.2,0.3-0.4c0.1-0.1,0.1-0.3,0.2-0.4c0-0.1,0.1-0.3,0.1-0.4
		c0-0.5-0.1-0.8-0.4-1.1c-0.3-0.3-0.7-0.4-1.2-0.4h-1.5c-0.1,0-0.1,0-0.1,0.1v5.1c0,0.1,0,0.1,0.1,0.1h0.5c0.1,0,0.1,0,0.1-0.1v-2
		c0-0.1,0-0.1,0.1-0.1h0.8c0,0,0.1,0,0.1,0c0,0,0,0,0,0.1l0.9,1.9c0,0.1,0.1,0.1,0.1,0.1c0,0,0.1,0,0.2,0H63c0,0,0.1,0,0.1,0
		c0,0,0-0.1,0-0.2C62.8,163.9,62.7,163.5,62.5,163.2z M61.7,161.7C61.7,161.7,61.6,161.7,61.7,161.7c-0.1,0-0.1,0-0.1,0h-1
		c0,0-0.1,0-0.1-0.1v-1.7c0,0,0-0.1,0.1-0.1h0.7c0.2,0,0.4,0,0.5,0.1c0.1,0.1,0.2,0.1,0.3,0.2c0.1,0.1,0.1,0.2,0.1,0.3
		c0,0.1,0,0.2,0,0.3c0,0.1,0,0.3-0.1,0.5C61.9,161.5,61.8,161.6,61.7,161.7z M123.9,114.1c-0.6-0.5-1.4-0.8-2.2-0.9
		c-0.8-0.2-1.8-0.2-2.8-0.2h-4.5V147c0,2.4-0.3,4.4-0.8,6c-0.6,1.6-1.3,2.8-2.2,3.8c-0.9,1-1.9,1.6-3.1,2c-0.8,0.2-1.5,0.4-2.3,0.4
		c-1-0.1-2-0.3-2.9-0.7c-1-0.4-1.9-1.1-2.6-2.1c-0.8-1-1.3-2.3-1.8-3.9c-0.4-1.6-0.6-3.8-0.6-6.3v-26.8c0-1.3-0.2-2.4-0.5-3.2
		c-0.3-0.8-0.8-1.5-1.5-2c-0.6-0.5-1.4-0.8-2.2-0.9c-0.8-0.2-1.8-0.2-2.8-0.2h-4.5v33.7c0,3.6,0.6,6.7,1.7,9.3
		c1.1,2.6,2.6,4.7,4.4,6.3c1.8,1.6,3.8,2.8,6.1,3.5c2.1,0.6,4.1,0.9,6.2,0.8c0.7,0,1.4,0,2.1,0c1.2-0.1,2.3-0.3,3.3-0.7
		c1-0.4,1.9-0.8,2.7-1.2c0.8-0.5,1.4-0.9,2-1.4l0.1,0c0.5,0.9,1.2,1.6,2,1.9c1.2,0.5,2.6,0.7,4.2,0.7h4.5v-46.5
		c0-1.3-0.2-2.4-0.5-3.2C125.1,115.2,124.6,114.5,123.9,114.1z M177.8,114.1c-0.6-0.5-1.4-0.8-2.2-1c-0.8-0.2-1.7-0.2-2.7-0.2h-5
		l-11.8,30.3l-8.9-22.6c-1-2-2.1-3.5-3.3-4.5c-1.2-1-2.4-1.8-3.7-2.3c-1.3-0.5-2.5-0.7-3.7-0.8c-1.2-0.1-1.2,0-2.1,0h-2.2v46.4
		c0,1.3,0.2,2.4,0.5,3.2c0.3,0.8,0.8,1.5,1.4,2c0.6,0.5,1.4,0.8,2.2,1c0.8,0.2,1.7,0.2,2.7,0.2h3.6l0.1-29.2l7.6,19.7
		c1.1,2.2,1.8,3.5,4,4.9c0.8,0.5,1.6,0.9,2.3,1c0.8,0.2,2.5,0.2,3.3,0c3.5-8.9,6.1-17.8,9.6-26.7l0.1,23.6c0,1.3,0.2,2.4,0.5,3.2
		c0.3,0.9,0.8,1.5,1.4,2c0.6,0.5,1.4,0.8,2.2,1c0.8,0.2,1.7,0.3,2.7,0.3l3.4,0.1v-46.4c0-1.3-0.2-2.4-0.5-3.2
		C178.9,115.3,178.4,114.6,177.8,114.1z M179.2,58.5c-0.3-0.8-0.8-1.5-1.4-2c-0.6-0.5-1.4-0.8-2.2-1c-0.8-0.2-1.7-0.2-2.7-0.2h-5
		l-11.8,30.3l-8.9-22.6c-1-2-2.1-3.5-3.3-4.5c-1.2-1-2.4-1.8-3.7-2.3c-1.3-0.5-2.5-0.7-3.7-0.8c-1.2-0.1-1.2,0-2.1,0h-2.2v46.4
		c0,1.3,0.2,2.4,0.5,3.2c0.3,0.8,0.8,1.5,1.4,2c0.6,0.5,1.4,0.8,2.2,1c0.8,0.2,1.7,0.2,2.7,0.2l3.7,0l0-29.2l7.6,19.7
		c1.1,2.2,1.8,3.5,4,4.8c0.8,0.5,1.6,0.9,2.3,1c0.8,0.2,2.5,0.2,3.3,0c3.5-8.9,6.1-17.8,9.6-26.7l0.1,23.6c0,1.3,0.2,2.4,0.5,3.2
		c0.3,0.9,0.8,1.5,1.4,2c0.6,0.5,1.4,0.8,2.2,1c0.8,0.2,1.7,0.2,2.7,0.2l3.4,0.1V61.7C179.7,60.4,179.5,59.3,179.2,58.5z
		 M78.8,114.5c-0.6-0.5-1.4-0.8-2.2-1c-0.8-0.2-1.8-0.2-2.8-0.2l-4.6,0l0,19.9c0,2.4-0.3,4.3-0.8,5.9c-0.6,1.6-1.3,2.9-2.2,3.8
		c-0.9,0.9-1.9,1.6-3.1,2c-0.8,0.3-1.5,0.4-2.3,0.5c-1-0.1-2-0.3-2.9-0.7c-1-0.4-1.9-1.1-2.6-2.1c-0.8-1-1.3-2.3-1.8-4
		c-0.4-1.7-0.6-3.8-0.6-6.3v-12.7c0-1.3-0.2-2.4-0.5-3.2c-0.3-0.8-0.8-1.5-1.5-2c-0.6-0.5-1.4-0.8-2.2-1c-0.8-0.2-1.8-0.2-2.8-0.2
		h-4.5v19.6c0,3.6,0.6,6.7,1.7,9.3c1.1,2.6,2.6,4.7,4.4,6.3c1.8,1.6,3.8,2.8,6.1,3.4c2.1,0.6,4.1,0.9,6.1,0.8c0.7,0,1.4,0,2.1,0
		c1.5-0.1,2.7-0.4,3.8-0.9c1.1-0.5,2-0.9,2.8-1.4c0.3-0.2,0.5-0.4,0.8-0.5V160c0,1.3,0.2,2.4,0.5,3.2c0.3,0.8,0.8,1.5,1.5,2
		c0.6,0.5,1.4,0.8,2.2,1c0.8,0.2,1.8,0.2,2.8,0.2h4.5l0.1-46.7c0-1.3-0.2-2.4-0.5-3.2C79.9,115.6,79.4,114.9,78.8,114.5z
		 M123.9,55.8c-0.6-0.5-1.4-0.8-2.2-0.9c-0.8-0.2-1.8-0.2-2.8-0.2h-4.5v34.1c0,2.4-0.3,4.4-0.8,6c-0.6,1.6-1.3,2.8-2.2,3.8
		c-0.9,1-1.9,1.6-3.1,2c-0.8,0.2-1.5,0.4-2.3,0.4c-1-0.1-2-0.3-2.9-0.7c-1-0.4-1.9-1.1-2.6-2.1c-0.8-1-1.3-2.3-1.8-3.9
		c-0.4-1.6-0.6-3.8-0.6-6.3V61.1c0-1.3-0.2-2.4-0.5-3.2c-0.3-0.8-0.8-1.5-1.5-2c-0.6-0.5-1.4-0.8-2.2-0.9c-0.8-0.2-1.8-0.2-2.8-0.2
		h-4.5v33.7c0,3.6,0.6,6.7,1.7,9.3c1.1,2.6,2.6,4.7,4.4,6.3c1.8,1.6,3.8,2.8,6.1,3.4c2.1,0.6,4.1,0.9,6.2,0.8c0.7,0,1.4,0,2.1,0
		c1.2-0.1,2.3-0.3,3.3-0.7c1-0.4,1.9-0.8,2.7-1.2c0.8-0.5,1.4-0.9,2-1.4l0.1,0c0.5,0.9,1.2,1.6,2,1.9c1.2,0.5,2.6,0.7,4.2,0.7h4.5
		V61.1c0-1.3-0.2-2.4-0.5-3.2C125.1,57,124.6,56.3,123.9,55.8z"/>
</g>
</svg>
