<?xml version="1.0" encoding="utf-8"?>
<!-- Generator: Adobe Illustrator 22.1.0, SVG Export Plug-In . SVG Version: 6.00 Build 0)  -->
<svg version="1.1" id="Слой_1" xmlns="http://www.w3.org/2000/svg" xmlns:xlink="http://www.w3.org/1999/xlink" x="0px" y="0px"
	 viewBox="0 0 221.7 221.7" style="enable-background:new 0 0 221.7 221.7;" xml:space="preserve">
<style type="text/css">
	.st0{fill:#FFFFFF;}
</style>
<g>
	<path d="M110.8,221.7C49.7,221.7-0.1,172-0.1,110.8C-0.1,49.7,49.7-0.1,110.8-0.1c61.2,0,110.9,49.7,110.9,110.9
		C221.7,172,172,221.7,110.8,221.7z"/>
	<path d="M110.8,0C172,0,221.7,49.6,221.7,110.8c0,61.2-49.6,110.8-110.8,110.8C49.6,221.7,0,172,0,110.8C0,49.6,49.6,0,110.8,0
		 M110.8-0.1c-29.6,0-57.5,11.5-78.5,32.5c-21,21-32.5,48.8-32.5,78.5c0,29.6,11.5,57.5,32.5,78.5c21,21,48.8,32.5,78.5,32.5
		c29.6,0,57.5-11.5,78.5-32.5c21-21,32.5-48.8,32.5-78.5c0-29.6-11.5-57.5-32.5-78.5C168.3,11.4,140.5-0.1,110.8-0.1L110.8-0.1z"/>
</g>
<g>
	<path class="st0" d="M58.5,150.3c-2.6,0-4.8,2-4.8,4.5c0,2.5,2.1,4.5,4.8,4.5c2.6,0,4.8-2,4.8-4.5
		C63.3,152.3,61.1,150.3,58.5,150.3z M58.5,158.5c-2.2,0-4-1.7-4-3.7c0-2.1,1.8-3.7,4-3.7c2.2,0,4,1.7,4,3.7
		C62.4,156.9,60.7,158.5,58.5,158.5z M44.1,82.8c1.9,1.6,4.1,2.8,6.4,3.5c2.2,0.6,4.3,0.9,6.5,0.8c0.7,0,1.5,0,2.2,0
		c1.5-0.1,2.9-0.4,4-0.9c1.1-0.5,2.1-0.9,3-1.4c0.3-0.2,0.5-0.4,0.8-0.5v10.2c0,1.3,0.2,2.4,0.5,3.3c0.4,0.8,0.9,1.5,1.5,2
		c0.7,0.5,1.5,0.8,2.3,1c0.9,0.2,1.9,0.2,2.9,0.2h4.8V54.5c0-1.3-0.2-2.4-0.5-3.3c-0.4-0.9-0.9-1.5-1.5-2c-0.7-0.5-1.5-0.8-2.3-1
		c-0.9-0.2-1.9-0.2-2.9-0.2H67v19.7c0,2.4-0.3,4.3-0.9,5.9c-0.6,1.6-1.4,2.9-2.3,3.8c-0.9,0.9-2,1.6-3.2,2c-0.8,0.3-1.6,0.4-2.4,0.5
		C57,79.7,56,79.5,55,79.1c-1.1-0.4-2-1.1-2.8-2.1c-0.8-1-1.4-2.3-1.9-4c-0.4-1.7-0.7-3.8-0.7-6.3v-6.9l0-6c0-0.6,0-1.2-0.1-1.7
		l0-0.1c-0.1-0.6-0.2-1.1-0.4-1.5c-0.3-0.8-0.8-1.5-1.5-2c-0.7-0.5-1.4-0.8-2.3-1c-0.9-0.2-1.9-0.2-2.9-0.2l-4.9,0l0,14.5v5.3
		c0,3.6,0.6,6.7,1.8,9.3C40.6,79.1,42.2,81.2,44.1,82.8z M59.9,156.1c-0.1-0.3-0.2-0.5-0.3-0.6c-0.1-0.1-0.1-0.2-0.1-0.2
		c0,0,0-0.1,0-0.1c0,0,0,0,0-0.1c0.1-0.1,0.2-0.2,0.3-0.3c0.1-0.1,0.2-0.2,0.3-0.4c0.1-0.1,0.1-0.3,0.2-0.4c0-0.1,0.1-0.3,0.1-0.4
		c0-0.5-0.1-0.8-0.4-1.1c-0.3-0.3-0.7-0.4-1.3-0.4H57c-0.1,0-0.1,0-0.1,0.1v5.1c0,0.1,0,0.1,0.1,0.1h0.5c0.1,0,0.1,0,0.1-0.1v-2
		c0-0.1,0-0.1,0.1-0.1h0.8c0,0,0.1,0,0.1,0c0,0,0,0,0,0.1l0.9,1.9c0,0.1,0.1,0.1,0.1,0.1c0,0,0.1,0,0.2,0h0.5c0,0,0.1,0,0.1,0
		c0,0,0-0.1,0-0.1C60.3,156.7,60.1,156.3,59.9,156.1z M59,154.6C59,154.6,59,154.6,59,154.6c-0.1,0-0.1,0-0.1,0h-1.1
		c0,0-0.1,0-0.1-0.1v-1.7c0,0,0-0.1,0.1-0.1h0.8c0.2,0,0.4,0,0.5,0.1c0.1,0.1,0.2,0.1,0.3,0.2c0.1,0.1,0.1,0.2,0.2,0.3
		c0,0.1,0,0.2,0,0.3c0,0.1,0,0.3-0.1,0.5C59.3,154.3,59.2,154.5,59,154.6z M124.9,106.8c-0.7-0.5-1.5-0.8-2.3-0.9
		c-0.9-0.2-1.9-0.2-2.9-0.2h-4.8v34.2c0,2.4-0.3,4.4-0.9,6c-0.6,1.6-1.4,2.8-2.3,3.8c-0.9,1-2,1.6-3.3,2c-0.8,0.2-1.6,0.4-2.4,0.4
		c-1.1-0.1-2.1-0.3-3.1-0.7c-1.1-0.4-2-1.1-2.8-2.1c-0.8-1-1.4-2.3-1.9-3.9c-0.4-1.6-0.7-3.8-0.7-6.3v-26.9c0-1.3-0.2-2.4-0.5-3.2
		c-0.4-0.8-0.9-1.5-1.5-2c-0.7-0.5-1.5-0.8-2.3-0.9c-0.9-0.2-1.9-0.2-2.9-0.2h-4.8v33.8c0,3.6,0.6,6.7,1.8,9.3
		c1.2,2.6,2.8,4.7,4.6,6.3c1.9,1.6,4,2.8,6.4,3.5c2.2,0.6,4.4,0.9,6.5,0.8c0.7,0,1.5,0,2.2,0c1.2-0.1,2.4-0.3,3.5-0.7
		c1.1-0.4,2.1-0.8,2.9-1.2c0.8-0.5,1.5-0.9,2.1-1.4l0.1,0c0.5,0.9,1.2,1.6,2.2,1.9c1.2,0.5,2.7,0.7,4.4,0.7h4.8v-46.5
		c0-1.3-0.2-2.4-0.5-3.2C126.1,108,125.6,107.3,124.9,106.8z M181.8,106.9c-0.7-0.5-1.4-0.8-2.3-1c-0.9-0.2-1.8-0.2-2.9-0.2h-5.3
		L158.9,136l-9.5-22.6c-1-2-2.2-3.5-3.5-4.5c-1.3-1-2.6-1.8-3.9-2.3c-1.3-0.5-2.6-0.7-3.9-0.8c-1.3-0.1-1.2,0-2.3,0h-2.3v46.5
		c0,1.3,0.2,2.4,0.5,3.3c0.3,0.9,0.9,1.5,1.5,2c0.7,0.5,1.4,0.8,2.3,1c0.9,0.2,1.8,0.2,2.9,0.2h3.8l0.1-29.2l8,19.8
		c1.2,2.2,2,3.5,4.2,4.9c0.8,0.5,1.6,0.8,2.4,1c0.9,0.2,2.6,0.2,3.5,0c3.7-8.9,6.5-17.8,10.2-26.8L173,152c0,1.3,0.2,2.4,0.5,3.2
		c0.3,0.9,0.8,1.5,1.5,2c0.7,0.5,1.4,0.8,2.3,1c0.9,0.2,1.8,0.2,2.9,0.2l3.6,0.1v-46.5c0-1.3-0.2-2.4-0.5-3.2
		C183,108.1,182.5,107.4,181.8,106.9z M183.3,51.2c-0.3-0.9-0.9-1.5-1.5-2c-0.7-0.5-1.4-0.8-2.3-1c-0.9-0.2-1.8-0.2-2.9-0.2h-5.3
		l-12.4,30.3l-9.5-22.6c-1-2-2.2-3.5-3.5-4.5c-1.3-1-2.6-1.8-3.9-2.3c-1.3-0.5-2.6-0.7-3.9-0.8c-1.3-0.1-1.2,0-2.3,0h-2.3v46.5
		c0,1.3,0.2,2.4,0.5,3.3c0.3,0.9,0.9,1.5,1.5,2c0.7,0.5,1.4,0.8,2.3,1c0.9,0.2,1.8,0.2,2.9,0.2l3.9,0l0-29.3l8,19.8
		c1.2,2.2,2,3.5,4.2,4.9c0.8,0.5,1.6,0.8,2.4,1c0.9,0.2,2.6,0.2,3.5,0c3.7-8.9,6.5-17.8,10.2-26.8l0.1,23.7c0,1.3,0.2,2.4,0.5,3.2
		c0.3,0.8,0.8,1.5,1.5,2c0.7,0.5,1.4,0.8,2.3,1c0.9,0.2,1.8,0.2,2.9,0.2l3.6,0.1V54.4C183.9,53.1,183.7,52,183.3,51.2z M77.1,107.2
		c-0.7-0.5-1.5-0.8-2.3-1c-0.9-0.2-1.9-0.2-2.9-0.2l-4.9,0l0,20c0,2.4-0.3,4.3-0.9,5.9c-0.6,1.6-1.4,2.9-2.3,3.8
		c-0.9,0.9-2,1.6-3.2,2c-0.8,0.3-1.6,0.4-2.4,0.5c-1.1-0.1-2.1-0.3-3.1-0.7c-1.1-0.4-2-1.1-2.8-2.1c-0.8-1-1.4-2.3-1.9-4
		c-0.4-1.7-0.7-3.8-0.7-6.3v-12.7c0-1.3-0.2-2.4-0.5-3.2c-0.4-0.8-0.9-1.5-1.5-2c-0.7-0.5-1.5-0.8-2.3-1c-0.9-0.2-1.9-0.2-2.9-0.2
		h-4.8v19.6c0,3.6,0.6,6.7,1.8,9.3c1.2,2.6,2.8,4.7,4.7,6.3c1.9,1.6,4.1,2.8,6.4,3.5c2.2,0.6,4.3,0.9,6.5,0.8c0.7,0,1.5,0,2.2,0
		c1.5-0.1,2.9-0.4,4-0.9c1.1-0.5,2.1-0.9,3-1.4c0.3-0.2,0.5-0.4,0.8-0.5v10.2c0,1.3,0.2,2.4,0.5,3.3c0.4,0.9,0.9,1.5,1.5,2
		c0.7,0.5,1.5,0.8,2.3,1c0.9,0.2,1.9,0.2,2.9,0.2h4.8l0.1-46.8c0-1.3-0.2-2.4-0.5-3.2C78.3,108.4,77.8,107.7,77.1,107.2z
		 M124.9,48.5c-0.7-0.5-1.5-0.8-2.3-0.9c-0.9-0.2-1.9-0.2-2.9-0.2h-4.8v34.2c0,2.4-0.3,4.4-0.9,6c-0.6,1.6-1.4,2.8-2.3,3.8
		c-0.9,1-2,1.6-3.3,2c-0.8,0.2-1.6,0.4-2.4,0.4c-1.1-0.1-2.1-0.3-3.1-0.7c-1.1-0.4-2-1.1-2.8-2.1c-0.8-1-1.4-2.3-1.9-3.9
		c-0.4-1.6-0.7-3.8-0.7-6.3V53.8c0-1.3-0.2-2.4-0.5-3.2c-0.4-0.8-0.9-1.5-1.5-2c-0.7-0.5-1.5-0.8-2.3-0.9c-0.9-0.2-1.9-0.2-2.9-0.2
		h-4.8v33.8c0,3.6,0.6,6.7,1.8,9.3c1.2,2.6,2.8,4.7,4.6,6.3c1.9,1.6,4,2.8,6.4,3.5c2.2,0.6,4.4,0.9,6.5,0.8c0.7,0,1.5,0,2.2,0
		c1.2-0.1,2.4-0.3,3.5-0.7c1.1-0.4,2.1-0.8,2.9-1.2c0.8-0.5,1.5-0.9,2.1-1.4l0.1,0c0.5,0.9,1.2,1.6,2.2,1.9c1.2,0.5,2.7,0.7,4.4,0.7
		h4.8V53.8c0-1.3-0.2-2.4-0.5-3.2C126.1,49.7,125.6,49,124.9,48.5z"/>
</g>
<g>
	<g>
		<path class="st0" d="M60.4,169.5c0.5,0,0.9,0.1,1.3,0.3c0.4,0.2,0.7,0.4,0.9,0.7c0.2,0.3,0.4,0.6,0.5,1c0.1,0.4,0.2,0.7,0.2,1.1
			c0,0.4-0.1,0.7-0.2,1.1c-0.1,0.4-0.3,0.7-0.6,1c-0.3,0.3-0.6,0.6-0.9,0.7c-0.4,0.2-0.8,0.3-1.2,0.3h-2.7v4H56v-10.3H60.4z
			 M57.7,174.3h2.4c0.5,0,0.9-0.1,1.2-0.4c0.3-0.3,0.4-0.7,0.4-1.2c0-0.5-0.1-0.9-0.4-1.2c-0.3-0.3-0.7-0.4-1.2-0.4h-2.4V174.3z"/>
	</g>
	<g>
		<path class="st0" d="M70.4,169.5c0.5,0,1,0.1,1.3,0.3c0.4,0.2,0.7,0.4,0.9,0.7c0.2,0.3,0.4,0.6,0.5,1c0.1,0.4,0.2,0.7,0.2,1.1
			c0,0.3,0,0.6-0.1,0.8c-0.1,0.3-0.2,0.6-0.3,0.8c-0.1,0.3-0.3,0.5-0.5,0.7c-0.2,0.2-0.5,0.4-0.7,0.5l1.9,4.3h-1.9l-1.7-4h-2.3v4H66
			v-10.3H70.4z M71.7,172.7c0-0.5-0.1-0.9-0.4-1.2c-0.3-0.3-0.7-0.4-1.2-0.4h-2.4v3.2H70c0.5,0,0.9-0.1,1.2-0.4
			C71.5,173.5,71.7,173.2,71.7,172.7z"/>
	</g>
	<g>
		<path class="st0" d="M83.8,176.5c0,0.5-0.1,1-0.3,1.4c-0.2,0.4-0.5,0.8-0.8,1.1c-0.4,0.3-0.8,0.5-1.2,0.7c-0.5,0.2-1,0.2-1.5,0.2
			c-0.5,0-1.1-0.1-1.5-0.2c-0.5-0.2-0.9-0.4-1.2-0.7c-0.3-0.3-0.6-0.7-0.8-1.1c-0.2-0.4-0.3-0.9-0.3-1.4v-3.7c0-0.5,0.1-1,0.3-1.4
			c0.2-0.4,0.5-0.8,0.8-1.1c0.3-0.3,0.8-0.5,1.2-0.7c0.5-0.2,1-0.2,1.5-0.2c0.5,0,1,0.1,1.5,0.2c0.5,0.2,0.9,0.4,1.2,0.7
			c0.4,0.3,0.6,0.7,0.8,1.1c0.2,0.4,0.3,0.9,0.3,1.4V176.5z M82.1,173.1c0-0.4-0.1-0.7-0.2-1c-0.1-0.3-0.3-0.5-0.5-0.7
			c-0.2-0.2-0.4-0.3-0.7-0.4c-0.3-0.1-0.5-0.1-0.8-0.1c-0.3,0-0.6,0-0.8,0.1c-0.3,0.1-0.5,0.2-0.7,0.4c-0.2,0.2-0.4,0.4-0.5,0.7
			c-0.1,0.3-0.2,0.6-0.2,1v3.1c0,0.4,0.1,0.7,0.2,1c0.1,0.3,0.3,0.5,0.5,0.7c0.2,0.2,0.4,0.3,0.7,0.4c0.3,0.1,0.5,0.1,0.8,0.1
			c0.3,0,0.6,0,0.8-0.1c0.3-0.1,0.5-0.2,0.7-0.4c0.2-0.2,0.4-0.4,0.5-0.7c0.1-0.3,0.2-0.6,0.2-1V173.1z"/>
	</g>
	<g>
		<path class="st0" d="M88.7,173.9h4.5v1.5h-4.5v4.4H87v-10.3h7v1.5h-5.3V173.9z"/>
	</g>
	<g>
		<path class="st0" d="M96.6,169.5h7v1.5h-5.3v2.8h4.5v1.5h-4.5v2.9h5.3v1.5h-7V169.5z"/>
	</g>
	<g>
		<path class="st0" d="M113.8,176.9c0,0.5-0.1,0.9-0.3,1.3c-0.2,0.4-0.5,0.7-0.8,0.9c-0.3,0.3-0.7,0.4-1.2,0.6
			c-0.5,0.1-1,0.2-1.5,0.2c-0.7,0-1.4-0.1-2.1-0.3c-0.6-0.2-1.3-0.5-1.9-1l1-1.2c0.4,0.3,0.9,0.6,1.4,0.8c0.5,0.2,1,0.3,1.5,0.3
			c0.7,0,1.2-0.1,1.5-0.4c0.3-0.3,0.5-0.6,0.5-1c0-0.3-0.1-0.5-0.2-0.7c-0.1-0.2-0.3-0.3-0.5-0.4c-0.2-0.1-0.5-0.2-0.8-0.3
			c-0.3-0.1-0.6-0.1-0.9-0.2c-0.4-0.1-0.8-0.2-1.2-0.3c-0.4-0.1-0.7-0.3-1-0.5c-0.3-0.2-0.5-0.5-0.7-0.8c-0.2-0.3-0.3-0.7-0.3-1.2
			c0-0.4,0.1-0.8,0.2-1.2c0.2-0.4,0.4-0.7,0.7-1c0.3-0.3,0.7-0.5,1.1-0.6c0.4-0.2,0.9-0.2,1.4-0.2c0.6,0,1.2,0.1,1.8,0.2
			c0.6,0.1,1.2,0.4,1.7,0.7l-0.8,1.4c-0.5-0.3-0.9-0.5-1.4-0.6c-0.5-0.1-0.9-0.2-1.3-0.2c-0.2,0-0.5,0-0.7,0.1
			c-0.2,0.1-0.4,0.1-0.6,0.3c-0.2,0.1-0.3,0.3-0.4,0.5c-0.1,0.2-0.1,0.4-0.1,0.6c0,0.2,0.1,0.5,0.2,0.6c0.1,0.2,0.3,0.3,0.5,0.4
			c0.2,0.1,0.5,0.2,0.7,0.3c0.3,0.1,0.6,0.1,0.9,0.2c0.5,0.1,0.9,0.2,1.3,0.4c0.4,0.2,0.8,0.3,1.1,0.6c0.3,0.2,0.5,0.5,0.7,0.8
			C113.7,176,113.8,176.4,113.8,176.9z"/>
	</g>
	<g>
		<path class="st0" d="M123.9,176.9c0,0.5-0.1,0.9-0.3,1.3c-0.2,0.4-0.5,0.7-0.8,0.9c-0.3,0.3-0.7,0.4-1.2,0.6
			c-0.5,0.1-1,0.2-1.5,0.2c-0.7,0-1.4-0.1-2.1-0.3c-0.6-0.2-1.3-0.5-1.9-1l1-1.2c0.4,0.3,0.9,0.6,1.4,0.8c0.5,0.2,1,0.3,1.5,0.3
			c0.7,0,1.2-0.1,1.5-0.4c0.3-0.3,0.5-0.6,0.5-1c0-0.3-0.1-0.5-0.2-0.7c-0.1-0.2-0.3-0.3-0.5-0.4c-0.2-0.1-0.5-0.2-0.8-0.3
			c-0.3-0.1-0.6-0.1-0.9-0.2c-0.4-0.1-0.8-0.2-1.2-0.3c-0.4-0.1-0.7-0.3-1-0.5c-0.3-0.2-0.5-0.5-0.7-0.8c-0.2-0.3-0.3-0.7-0.3-1.2
			c0-0.4,0.1-0.8,0.2-1.2c0.2-0.4,0.4-0.7,0.7-1c0.3-0.3,0.7-0.5,1.1-0.6c0.4-0.2,0.9-0.2,1.4-0.2c0.6,0,1.2,0.1,1.8,0.2
			c0.6,0.1,1.2,0.4,1.7,0.7l-0.8,1.4c-0.5-0.3-0.9-0.5-1.4-0.6c-0.5-0.1-0.9-0.2-1.3-0.2c-0.2,0-0.5,0-0.7,0.1
			c-0.2,0.1-0.4,0.1-0.6,0.3c-0.2,0.1-0.3,0.3-0.4,0.5c-0.1,0.2-0.2,0.4-0.2,0.6c0,0.2,0.1,0.5,0.2,0.6c0.1,0.2,0.3,0.3,0.5,0.4
			c0.2,0.1,0.5,0.2,0.7,0.3c0.3,0.1,0.6,0.1,0.9,0.2c0.5,0.1,0.9,0.2,1.3,0.4c0.4,0.2,0.8,0.3,1.1,0.6c0.3,0.2,0.5,0.5,0.7,0.8
			C123.8,176,123.9,176.4,123.9,176.9z"/>
	</g>
	<g>
		<path class="st0" d="M128.7,169.5v10.3H127v-10.3H128.7z"/>
	</g>
	<g>
		<path class="st0" d="M140,176.5c0,0.5-0.1,1-0.3,1.4c-0.2,0.4-0.5,0.8-0.8,1.1c-0.4,0.3-0.8,0.5-1.2,0.7c-0.5,0.2-1,0.2-1.5,0.2
			c-0.5,0-1.1-0.1-1.5-0.2c-0.5-0.2-0.9-0.4-1.2-0.7c-0.3-0.3-0.6-0.7-0.8-1.1c-0.2-0.4-0.3-0.9-0.3-1.4v-3.7c0-0.5,0.1-1,0.3-1.4
			c0.2-0.4,0.5-0.8,0.8-1.1c0.3-0.3,0.8-0.5,1.2-0.7c0.5-0.2,1-0.2,1.5-0.2c0.5,0,1,0.1,1.5,0.2c0.5,0.2,0.9,0.4,1.2,0.7
			c0.4,0.3,0.6,0.7,0.8,1.1c0.2,0.4,0.3,0.9,0.3,1.4V176.5z M138.3,173.1c0-0.4-0.1-0.7-0.2-1c-0.1-0.3-0.3-0.5-0.5-0.7
			c-0.2-0.2-0.4-0.3-0.7-0.4c-0.3-0.1-0.5-0.1-0.8-0.1c-0.3,0-0.6,0-0.8,0.1c-0.3,0.1-0.5,0.2-0.7,0.4c-0.2,0.2-0.4,0.4-0.5,0.7
			c-0.1,0.3-0.2,0.6-0.2,1v3.1c0,0.4,0.1,0.7,0.2,1c0.1,0.3,0.3,0.5,0.5,0.7c0.2,0.2,0.4,0.3,0.7,0.4c0.3,0.1,0.5,0.1,0.8,0.1
			c0.3,0,0.6,0,0.8-0.1c0.3-0.1,0.5-0.2,0.7-0.4c0.2-0.2,0.4-0.4,0.5-0.7c0.1-0.3,0.2-0.6,0.2-1V173.1z"/>
	</g>
	<g>
		<path class="st0" d="M144.8,172.7v7.1h-1.7v-10.3h1.6l3.1,4.6l1.7,2.6h0.1v-7.1h1.7v10.3h-1.6l-3.1-4.6l-1.6-2.4H144.8z"/>
	</g>
	<g>
		<path class="st0" d="M160.1,177.6h-3.8l-0.7,2.2h-1.8l3.6-10.3h1.7l3.6,10.3h-1.9L160.1,177.6z M156.8,176.1h2.8l-0.6-1.9
			l-0.8-2.6h-0.1l-0.8,2.5L156.8,176.1z"/>
	</g>
	<g>
		<path class="st0" d="M165.3,179.8v-10.3h1.7v8.7h5.3v1.5H165.3z"/>
	</g>
</g>
</svg>
