<?xml version="1.0" encoding="UTF-8" standalone="no"?>
<!-- Created with Inkscape (http://www.inkscape.org/) -->

<svg
   xmlns:dc="http://purl.org/dc/elements/1.1/"
   xmlns:cc="http://creativecommons.org/ns#"
   xmlns:rdf="http://www.w3.org/1999/02/22-rdf-syntax-ns#"
   xmlns:svg="http://www.w3.org/2000/svg"
   xmlns="http://www.w3.org/2000/svg"
   xmlns:sodipodi="http://sodipodi.sourceforge.net/DTD/sodipodi-0.dtd"
   xmlns:inkscape="http://www.inkscape.org/namespaces/inkscape"
   width="235"
   height="235"
   viewBox="0 0 62.177081 62.177086"
   version="1.1"
   id="svg5118"
   inkscape:version="0.92.1 r15371"
   sodipodi:docname="chim-chim_hotasia.svg">
  <defs
     id="defs5112" />
  <sodipodi:namedview
     id="base"
     pagecolor="#ffffff"
     bordercolor="#666666"
     borderopacity="1.0"
     inkscape:pageopacity="0.0"
     inkscape:pageshadow="2"
     inkscape:zoom="0.35"
     inkscape:cx="-114.28571"
     inkscape:cy="560"
     inkscape:document-units="mm"
     inkscape:current-layer="layer1"
     showgrid="false"
     units="px"
     inkscape:window-width="1920"
     inkscape:window-height="1017"
     inkscape:window-x="-8"
     inkscape:window-y="-8"
     inkscape:window-maximized="1" />
  <metadata
     id="metadata5115">
    <rdf:RDF>
      <cc:Work
         rdf:about="">
        <dc:format>image/svg+xml</dc:format>
        <dc:type
           rdf:resource="http://purl.org/dc/dcmitype/StillImage" />
        <dc:title></dc:title>
      </cc:Work>
    </rdf:RDF>
  </metadata>
  <g
     inkscape:label="Layer 1"
     inkscape:groupmode="layer"
     id="layer1"
     transform="translate(0,-234.82289)">
    <g
       id="g5689"
       transform="matrix(0.26458333,0,0,0.26458333,-198.38458,227.95884)">
      <path
         id="path5665"
         d="m 980.8,143.7 c 0,61.3 -49.7,111 -111,111 -61.3,0 -111,-49.7 -111,-111 0,-61.3 49.7,-111 111,-111 61.3,0 111,49.7 111,111 z"
         inkscape:connector-curvature="0" />
      <path
         id="path5667"
         d="m 820.9,190.8 c 0.1,-0.1 0.1,-0.2 0.1,-0.2 0,-0.1 0,-0.1 0,-0.2 l -0.1,-0.1 c 0,0 -0.1,0 -0.2,0 h -0.2 v 0.7 h 0.4 c 0,-0.1 0,-0.1 0,-0.2 z m 117,12.2 c 0.7,0 1.4,0 2.1,0 2.5,0 4.8,0.2 6.9,0.6 0.9,-4.7 2.3,-9.5 3.7,-14 -4.3,4 -8.6,8.5 -12.7,13.4 z M 869.8,32.7 c -61.3,0 -111,49.7 -111,111 0,31.7 13.3,60.3 34.7,80.6 -0.5,-1.2 0.2,-2.2 0.5,-2.6 0.7,-0.8 1.6,-1.6 2.4,-2.4 0.7,-0.6 1.4,-1.2 1.9,-1.8 2.7,-2.9 5.1,-6.2 7.1,-9.4 0.2,-0.4 0.5,-0.8 0.7,-1.2 0.7,-1.3 1.6,-2.8 2.6,-3.7 0.7,-0.6 1.9,-1.1 3,-1.1 1.5,0 2.4,0.8 2.4,2.1 0,1.1 -1,3.1 -3.4,6.6 -0.3,0.5 -0.7,1 -1.1,1.5 -1,1.4 -2,2.8 -2.8,4.3 -1.9,3.4 -3.7,7.1 -5.5,10.9 0.4,-0.1 0.8,-0.3 1.2,-0.4 2,-0.7 4,-1.4 5.9,-2.1 0.1,-0.1 0.1,-0.1 0.2,-0.2 2.5,-7.3 7.5,-15.4 11.6,-21.6 0.5,-0.8 1.5,-1.3 2.6,-1.3 1,0 1.8,0.4 2.3,1.1 0.4,0.6 0.5,1.4 0.2,2.2 -0.3,0.8 -0.8,1.4 -1.3,2 -0.2,0.3 -0.4,0.6 -0.6,0.9 -2.5,3.7 -4.9,8.2 -7.4,13.6 0,0 0.1,0 0.1,0 0.6,0.3 0.9,0.8 0.9,1.3 0,0.3 -0.1,0.5 -0.3,0.7 0,0.2 -0.1,0.4 -0.2,0.5 l -0.3,0.4 -0.4,0.1 c -0.1,0 -0.2,0.3 -0.3,0.5 -0.3,0.6 -0.7,1.4 -1.8,1.8 -0.7,2 -2.5,7.3 -2.3,10.6 v 0.1 0.2 c 0,0.1 -0.1,0.2 -0.1,0.3 0,0 0,0 0,0 17,10.6 37,16.7 58.5,16.7 61.3,0 111,-49.7 111,-111 0,-61.5 -49.7,-111.2 -111,-111.2 z m 22.1,50.4 h 2.9 c 0.4,0 0.6,0 0.8,0 0.2,0 0.3,0 0.5,0 0.2,0 0.5,0 0.9,0 1.3,0.1 2.6,0.3 3.9,0.8 1.3,0.5 2.7,1.3 3.9,2.4 1.3,1.1 2.5,2.7 3.5,4.8 l 8.5,21.4 11.5,-29.5 h 5.5 c 1,0 2,0.1 2.9,0.3 0.9,0.2 1.8,0.6 2.5,1.1 0.7,0.6 1.3,1.3 1.7,2.3 0.4,0.9 0.5,2.1 0.5,3.5 v 47.7 c 0,0 -4.1,-0.2 -4.1,-0.2 -1,0 -2,-0.1 -2.8,-0.3 -0.9,-0.2 -1.8,-0.6 -2.5,-1.1 -0.7,-0.6 -1.3,-1.3 -1.7,-2.3 -0.4,-0.9 -0.5,-2.1 -0.5,-3.5 L 929.7,110 c -1.3,3.5 -2.5,7 -3.7,10.4 -1.5,4.4 -3.1,9 -4.9,13.5 l -0.1,0.3 -0.3,0.1 c -0.5,0.1 -1.2,0.2 -1.9,0.2 -0.4,0 -1.1,0 -1.7,-0.2 -0.8,-0.2 -1.6,-0.6 -2.5,-1.1 -2.3,-1.5 -3.1,-2.9 -4.2,-5.2 l -6.5,-16.9 -0.1,26.8 h -4.3 c -1,0 -2,-0.1 -2.9,-0.3 -0.9,-0.2 -1.8,-0.6 -2.5,-1.1 -0.7,-0.6 -1.3,-1.3 -1.7,-2.3 -0.4,-0.9 -0.5,-2.1 -0.5,-3.5 z m -46.1,-0.7 h 5.2 c 1,0 2,0.1 2.9,0.3 0.9,0.2 1.8,0.5 2.5,1.1 0.7,0.5 1.3,1.3 1.7,2.3 0.4,0.9 0.6,2.1 0.6,3.5 v 27.2 c 0,2.5 0.2,4.6 0.6,6.3 0.4,1.6 1,2.8 1.7,3.8 0.7,0.9 1.5,1.5 2.4,1.9 0.9,0.3 1.8,0.6 2.8,0.6 0.6,-0.1 1.3,-0.2 2.1,-0.4 1.1,-0.3 2,-0.9 2.9,-1.8 0.8,-0.9 1.5,-2.1 2.1,-3.6 0.5,-1.5 0.8,-3.5 0.8,-5.8 V 82.4 h 5.2 c 1,0 2,0.1 2.9,0.3 0.9,0.2 1.8,0.5 2.5,1.1 0.7,0.5 1.3,1.3 1.7,2.3 0.4,0.9 0.6,2.1 0.6,3.5 v 47.7 h -5.2 c -1.7,0 -3.2,-0.3 -4.5,-0.8 -0.8,-0.3 -1.5,-0.9 -2,-1.6 -0.5,0.3 -1,0.7 -1.6,1 -0.8,0.5 -1.8,0.9 -2.9,1.3 -1.1,0.4 -2.3,0.6 -3.5,0.7 -0.5,0 -0.9,0.1 -1.3,0.1 -0.3,0 -0.6,0 -0.8,0 -0.2,0 -0.5,0 -0.8,0 -1.8,0 -3.7,-0.3 -5.6,-0.9 -2.4,-0.7 -4.5,-1.9 -6.4,-3.6 -1.9,-1.7 -3.4,-3.9 -4.6,-6.6 -1.2,-2.7 -1.8,-5.9 -1.8,-9.7 V 82.4 Z m -45.8,15.1 0.1,-0.1 v -15 h 5.2 c 1,0 2,0.1 2.9,0.3 0.9,0.2 1.8,0.5 2.5,1.1 0.7,0.5 1.3,1.3 1.7,2.3 0.1,0.2 0.1,0.4 0.2,0.6 l 0.2,-0.2 V 88 c 0.1,0.4 0.1,1 0.1,1.7 v 6.4 l -0.1,0.1 v 6.7 c 0,2.5 0.2,4.6 0.6,6.2 0.4,1.6 1,2.9 1.7,3.8 0.7,0.9 1.5,1.5 2.4,1.9 0.9,0.3 1.8,0.6 2.8,0.6 0.6,-0.1 1.4,-0.2 2.1,-0.4 1.1,-0.4 2,-1 2.8,-1.8 0.8,-0.9 1.5,-2.1 2.1,-3.6 0.5,-1.5 0.8,-3.5 0.8,-5.8 V 83.1 h 5.2 c 1,0 2,0.1 2.9,0.3 0.9,0.2 1.8,0.6 2.5,1.1 0.7,0.6 1.3,1.3 1.7,2.3 0.4,0.9 0.6,2.1 0.6,3.5 V 138 h -5.2 c -1,0 -2,-0.1 -2.9,-0.3 -0.9,-0.2 -1.8,-0.6 -2.5,-1.1 -0.7,-0.6 -1.3,-1.3 -1.7,-2.3 -0.4,-0.9 -0.6,-2.1 -0.6,-3.5 v -9.1 c -0.8,0.4 -1.7,0.9 -2.7,1.3 -1.2,0.5 -2.5,0.8 -4.1,0.9 -0.4,0 -0.9,0.1 -1.3,0.1 -0.3,0 -0.5,0 -0.8,0 -0.2,0 -0.5,0 -0.8,0 -1.8,0 -3.7,-0.3 -5.6,-0.9 -2.3,-0.7 -4.5,-1.9 -6.4,-3.6 -1.9,-1.7 -3.5,-3.9 -4.7,-6.6 -1.2,-2.7 -1.8,-6 -1.8,-9.7 v -5.7 z m 12.8,84.6 c -2.3,-0.7 -4.5,-1.9 -6.4,-3.6 -1.9,-1.7 -3.5,-3.9 -4.7,-6.6 -1.2,-2.7 -1.8,-6 -1.8,-9.7 v -20.5 h 5.2 c 1,0 2,0.1 2.9,0.3 0.9,0.2 1.8,0.6 2.5,1.1 0.7,0.6 1.3,1.3 1.7,2.3 0.4,0.9 0.6,2.1 0.6,3.5 v 12.9 c 0,2.5 0.2,4.6 0.6,6.2 0.4,1.6 1,2.9 1.7,3.8 0.7,0.9 1.5,1.5 2.4,1.9 0.9,0.4 1.8,0.6 2.8,0.6 0.6,-0.1 1.4,-0.2 2.1,-0.4 1.1,-0.4 2,-1 2.8,-1.8 0.8,-0.9 1.5,-2.1 2.1,-3.6 0.5,-1.5 0.8,-3.4 0.8,-5.8 l 0.1,-20.8 h 5.2 c 1.1,0 2,0.1 2.9,0.3 0.9,0.2 1.8,0.6 2.5,1.1 0.7,0.6 1.3,1.3 1.7,2.3 0.4,0.9 0.6,2.1 0.6,3.5 l -0.1,48 h -5.2 c -1,0 -2,-0.1 -2.9,-0.3 -0.9,-0.2 -1.8,-0.6 -2.5,-1.1 -0.7,-0.6 -1.3,-1.3 -1.7,-2.3 -0.4,-0.9 -0.6,-2.1 -0.6,-3.5 v -9.1 c -0.8,0.4 -1.7,0.9 -2.7,1.3 -1.2,0.5 -2.5,0.8 -4.1,0.9 -0.4,0 -0.9,0 -1.3,0 -0.3,0 -0.6,0 -0.8,0 -0.2,0 -0.5,0 -0.8,0 -1.8,-0.1 -3.7,-0.3 -5.6,-0.9 z m 7.8,14.9 c -2.9,0 -5.2,-2.3 -5.2,-5.2 0,-2.9 2.3,-5.2 5.2,-5.2 2.9,0 5.2,2.3 5.2,5.2 0,2.8 -2.3,5.2 -5.2,5.2 z m 30.3,30.3 -0.8,1.6 c -0.3,0.5 -0.6,1.2 -0.5,1.7 l 0.2,0.6 -0.4,0.5 c -0.1,0.1 -0.2,0.3 -0.4,0.4 -0.1,0.1 -0.2,0.2 -0.2,0.3 l -0.2,0.4 -0.4,0.2 c -0.5,0.2 -1.2,0.3 -1.9,0.3 -0.7,0 -2,-0.1 -2.6,-1 l -0.2,-0.3 v -0.4 c 0.2,-7.7 4,-17.2 8.3,-26.4 -0.4,0.1 -0.8,0.2 -1.1,0.4 -1.2,0.4 -2.4,0.8 -3.7,1.1 -0.1,0.1 -0.1,0.1 -0.2,0.2 -0.2,0.1 -0.4,0.3 -0.4,0.5 l -0.4,1.6 -1.2,-0.8 c -0.2,0 -0.5,0.1 -0.6,0.1 -0.3,0.1 -0.6,0.1 -0.7,0.1 h -0.4 l -0.3,-0.2 c -0.4,-0.3 -0.7,-0.6 -0.8,-0.9 0,0 0,0.1 0,0.1 -0.1,0.5 -0.3,0.9 -0.6,1.2 0,0.1 0.1,0.1 0.1,0.2 l 0.2,0.6 -0.2,0.3 c 0.1,0.1 0.2,0.3 0.3,0.5 0.2,0.6 0.1,1.1 0,1.5 0,0.2 -0.1,0.4 -0.1,0.5 0,0.2 0.1,0.4 0.2,0.6 0.2,0.4 0.6,1.1 0.2,2 0.1,0.2 0.3,0.5 0.2,0.9 v 0.1 0.2 c -0.5,1.4 -0.5,2.1 -0.5,2.4 l 0.2,0.6 -0.4,0.4 c -0.4,0.5 -0.7,1.3 -0.7,1.9 v 0.3 l -0.1,0.3 c -1.5,2.9 -7.3,12.5 -16.3,12.5 v 0 c -0.4,0 -0.8,0 -1.2,-0.1 -2.4,-0.2 -4.1,-1.2 -5,-2.8 -2,-3.6 0.3,-9.2 1.1,-10.8 1.9,-4 5,-8 9.2,-12 -0.1,-0.2 -0.1,-0.5 0,-0.9 l 0.1,-0.4 0.3,-0.2 c 0.4,-0.3 0.5,-0.7 0.8,-1.2 0.1,-0.2 0.1,-0.4 0.2,-0.5 l 0.2,-0.4 0.4,-0.2 c 0.7,-0.3 1.4,-0.7 1.9,-1.3 l 0.3,-0.4 h 0.5 c 0,0 0.1,0 0.2,0 0.2,0 0.5,0 0.9,0 0.3,0 0.7,0 1,0 0.1,0 0.1,0 0.1,0 l 0.7,-0.5 0.6,0.7 c 0.2,0.2 1,0.4 1.6,0.6 1.2,0.3 3,0.7 3.5,2 0.4,-1.1 1.8,-2.3 4.1,-3.5 l 0.2,-0.1 h 0.8 c 1.5,-0.8 3.2,-1.2 4.8,-1.6 0.8,-0.2 1.5,-0.3 2.2,-0.5 0.4,-1.6 2.2,-2.5 3.8,-2.5 1,0 1.8,0.4 2.2,1 2.9,-0.6 5.9,-1 8.7,-1.4 l 2.5,-0.4 0.3,0.4 c 0,0 0.1,0 0.1,0 0.3,-0.1 0.7,-0.2 1,-0.2 0.3,0 0.6,0.1 0.8,0.2 0.3,-0.1 0.5,-0.1 0.8,-0.1 0.9,0 1.9,0.5 2.5,0.9 l 1.8,1.2 -2,0.8 c -0.8,0.3 -1.6,0.4 -2.4,0.5 -0.7,0.1 -1.4,0.2 -2,0.5 H 872 l -0.2,0.1 c -0.2,0 -0.2,0 -0.3,0 -0.2,0 -0.4,0 -0.5,-0.1 -0.8,0.5 -1.6,0.5 -2.3,0.6 -0.6,0 -1.2,0.1 -1.8,0.3 h -0.1 -0.2 c -2.7,0.3 -5.5,0.6 -8,1.5 -4.2,8.3 -7.3,16.7 -8.9,23.8 z m 105.8,-38.9 c -2.2,7.2 -4.5,15.5 -4.8,23 v 0.5 l -0.4,0.3 c -0.2,0.1 -0.3,0.3 -0.5,0.6 -0.2,0.3 -0.4,0.6 -0.8,0.9 l -0.3,0.2 h -0.5 c -1,0 -1.7,-0.3 -2.3,-0.9 -0.9,-1 -1,-2.5 -1,-3.7 -2.1,-1.1 -5.6,-1.3 -9,-1.3 h -2.2 c -0.5,0 -1,0 -1.4,0 -0.8,0.7 -1.4,1.5 -2.1,2.4 -0.1,0.1 -0.2,0.2 -0.3,0.3 l 0.2,0.1 -0.5,1 c -0.1,0.3 -0.3,0.5 -0.5,0.7 -0.1,0.2 -0.4,0.5 -0.4,0.6 v 0.3 l -0.2,0.3 c -0.7,1.1 -2.7,2.3 -4.3,2.3 -1.1,0 -1.9,-0.6 -2.1,-1.7 -0.3,-1.4 0.7,-3.1 1.5,-4.1 l -1.1,-1.1 c -0.1,0.3 -0.2,0.5 -0.3,0.8 -0.9,2.3 -1.9,4.9 -2.2,7.1 v 0.3 l -0.2,0.2 c -0.6,0.8 -1.7,1.3 -2.8,1.3 -0.4,0 -0.7,-0.1 -1,-0.2 h -0.1 l -0.2,-0.1 c -0.8,-0.7 -0.6,-1.4 -0.4,-1.8 -1,-2.1 -0.2,-4.5 0.6,-6.5 -0.3,0.5 -0.6,0.9 -1,1.4 v 0.1 l -0.1,0.1 c -2.5,1.9 -5.2,3.6 -8.1,5 -0.3,0.1 -0.6,0.3 -0.9,0.5 -0.3,0.2 -0.7,0.5 -1.1,0.7 -0.6,0.3 -1.2,0.5 -1.8,0.7 -0.5,0.1 -0.9,0.3 -1.3,0.5 l -0.9,0.4 c -2.4,1 -4.9,2 -7.6,2.1 -0.3,0.1 -0.6,0.2 -0.9,0.3 l -0.1,0.1 h -0.2 -0.1 c -1.6,0 -2.8,-0.6 -3.3,-1.5 -0.5,-1 -0.4,-2.3 0.4,-3.6 0.4,-0.7 1.4,-1.4 2.1,-2 0.3,-0.2 0.6,-0.4 0.7,-0.6 l 0.2,-0.7 h 1 c 0.1,-0.2 0.2,-0.5 0.6,-0.8 l 0.1,-0.1 0.2,-0.1 c 0.3,-0.1 0.5,-0.1 0.7,-0.1 0.5,0 0.9,0.2 1.2,0.5 0.4,0.5 0.6,1.2 0.5,1.9 l -0.1,0.8 -0.8,0.2 c -0.2,0 -0.3,0.1 -0.5,0.4 -0.1,0.1 -0.3,0.3 -0.4,0.4 2.1,-0.4 4.8,-1.4 5.8,-1.8 2.5,-0.9 4.7,-2.2 7.1,-3.5 0.8,-0.4 1.5,-0.9 2.3,-1.3 0.2,-0.3 0.5,-0.5 0.8,-0.8 0.2,-0.2 0.3,-0.3 0.5,-0.5 -1,-0.3 -2.2,-0.4 -3.9,-0.4 -1.3,0 -2.6,0.1 -3.9,0.1 -1.3,0.1 -2.5,0.1 -3.5,0.1 -0.6,0 -1.2,0 -1.7,-0.1 -2.6,-0.3 -5.5,-1.4 -6,-4 v -0.1 -0.2 l 0.1,-0.6 c 0.2,-1 0.4,-1.8 0.9,-2.9 0.8,-1.6 2.2,-3.1 3.9,-4.7 -0.5,0 -1.1,-0.1 -1.5,-0.2 -0.9,-0.2 -1.8,-0.6 -2.5,-1.1 -0.1,-0.1 -0.2,-0.2 -0.3,-0.3 -0.2,2.9 -1,5.6 -1.8,8.2 -0.3,0.9 -0.5,1.8 -0.8,2.7 0.1,0 0.2,0 0.2,0 0.8,0.1 1.8,0.3 2.5,1.2 l 0.4,0.6 -0.3,0.6 c -0.6,1.1 -1.6,1.7 -3,1.7 -0.3,0 -0.6,0 -1,-0.1 -1,2.7 -1.5,5.5 -2,8.4 -0.2,1.3 -0.5,2.6 -0.7,4 -0.2,1.1 -1,4.6 -3.6,4.6 -0.1,0 -0.1,0 -0.2,0 -1.4,-0.1 -2.1,-1.7 -1.9,-4.3 0.2,-3.7 1.1,-7 2.1,-10.5 0.1,-0.4 0.2,-0.7 0.3,-1.1 -2.1,0.4 -4.2,1.2 -6.3,1.9 l -1,0.3 c -3,3.9 -5.6,7.5 -7.9,11 -0.2,0.4 -0.5,0.9 -0.8,1.5 -0.9,1.9 -2,4.2 -4.3,4.2 -0.2,0 -0.4,0 -0.6,-0.1 -0.5,-0.1 -0.9,-0.4 -1.1,-0.8 -0.7,-1.3 0.1,-3.6 0.2,-3.8 1,-2.5 2.7,-4.7 4.3,-6.8 0.1,-0.1 0.2,-0.2 0.2,-0.3 0,0 -0.1,0.1 -0.1,0.1 -0.9,0.6 -1.9,1.3 -3,1.3 -0.1,0 -0.1,0 -0.2,0 -0.9,0 -1.7,-0.4 -2,-1.2 -0.4,-0.8 -0.3,-2 0.4,-2.8 0.6,-0.9 2.5,-1.8 4.7,-2.9 0.5,-0.2 0.9,-0.5 1.2,-0.6 1.5,-0.8 3.5,-1.8 5.6,-2.8 1.3,-1.5 2.6,-3.1 4,-4.9 2.2,-2.8 4.5,-5.6 6.8,-8 h -2.4 c -1.7,0 -3.2,-0.3 -4.5,-0.8 -0.8,-0.3 -1.5,-0.9 -2,-1.6 -0.5,0.3 -1,0.7 -1.6,1 -0.8,0.5 -1.8,0.9 -2.9,1.3 -1.1,0.4 -2.3,0.6 -3.5,0.7 -0.5,0 -0.9,0.1 -1.4,0.1 -0.3,0 -0.6,0 -0.8,0 -0.2,0 -0.5,0 -0.8,0 -1.8,0 -3.7,-0.3 -5.6,-0.9 -2.4,-0.7 -4.5,-1.9 -6.4,-3.6 -1.9,-1.7 -3.4,-3.9 -4.6,-6.6 -1.2,-2.7 -1.8,-5.9 -1.8,-9.7 v -34.8 h 5.2 c 1.1,0 2,0.1 2.9,0.3 0.9,0.2 1.8,0.5 2.5,1.1 0.7,0.5 1.3,1.3 1.7,2.3 0.4,0.9 0.6,2.1 0.6,3.5 v 27.2 c 0,2.5 0.2,4.6 0.6,6.3 0.4,1.6 1,2.8 1.7,3.8 0.7,0.9 1.5,1.5 2.4,1.9 0.9,0.4 1.8,0.6 2.8,0.6 0.6,-0.1 1.3,-0.2 2.1,-0.4 1.1,-0.3 2,-0.9 2.9,-1.8 0.8,-0.9 1.5,-2.1 2.1,-3.6 0.5,-1.5 0.8,-3.5 0.8,-5.8 v -35.2 h 5.2 c 1.1,0 2,0.1 2.9,0.3 0.9,0.2 1.8,0.5 2.5,1.1 0.7,0.5 1.3,1.3 1.7,2.3 0.4,0.9 0.6,2.1 0.6,3.5 v 45.2 c 0,0 0.1,-0.1 0.1,-0.1 1.1,-0.8 2.8,-1.7 4.3,-1.7 0.4,0 0.7,0.1 1.1,0.2 -0.3,-0.8 -0.4,-1.9 -0.4,-3 v -47.6 h 2.9 c 0.4,0 0.6,0 0.8,0 0.2,0 0.3,0 0.5,0 0.2,0 0.5,0 0.9,0 1.3,0.1 2.6,0.3 3.9,0.8 1.3,0.5 2.7,1.3 3.9,2.4 1.3,1.1 2.5,2.7 3.5,4.8 l 8.5,21.4 11.5,-29.6 h 5.5 c 1,0 2,0.1 2.9,0.3 0.9,0.2 1.8,0.6 2.5,1.1 0.7,0.6 1.3,1.4 1.7,2.3 0.4,0.9 0.5,2.1 0.5,3.5 v 42.8 c 2.5,-2.6 5,-5.1 7.6,-7.4 1.2,-1 4.2,-3.4 6.1,-3.5 h 0.1 c 0.8,0 1.3,0.4 1.6,0.6 0.2,0.1 0.3,0.2 0.4,0.2 l 0.7,0.2 0.1,0.7 c 0.3,1.7 -0.3,3.4 -0.9,4.8 -0.2,0.8 -0.4,1.3 -0.5,1.7 z m -27.8,-2.1 0.3,-0.2 h 0.5 l -0.1,-17.7 c -1.3,3.5 -2.5,7 -3.7,10.4 -1.5,4.4 -3.1,9 -4.9,13.5 l -0.1,0.3 -0.3,0.1 c -0.4,0.1 -0.9,0.2 -1.5,0.2 -1.2,2.6 -5,6 -6.9,7.3 -0.6,0.4 -1.3,0.6 -2,0.6 -1,0 -1.8,-0.4 -2.3,-1.1 -0.4,-0.6 -0.5,-1.4 -0.2,-2.3 0.2,-0.6 0.6,-1.1 1,-1.6 0.3,-0.3 0.5,-0.7 0.7,-1 -3.6,1.7 -7.9,4.7 -9.4,6.8 -0.7,1 -0.7,1.4 -0.6,1.5 0,0.1 0.4,0.6 3.5,0.6 1,0 1.9,0 2.7,-0.1 0.5,0 0.9,0 1.1,0 0.4,0 0.9,0 1.4,0 0.7,0 1.5,0 2.3,0 2.6,0 5.8,0.2 7.5,2.1 l 0.2,0.2 v 0.2 c 0.2,0.7 0.3,1.4 0.2,2 1.7,-4.3 3.7,-8.5 6,-13 -0.2,-0.5 -0.2,-1 -0.1,-1.3 0,0 0,-0.1 0,-0.1 l -0.8,-0.9 1.2,-0.7 c 0.2,-0.1 0.3,-0.4 0.3,-0.7 v -0.5 l 0.4,-0.4 c 0.5,-0.5 0.9,-1 1.3,-1.5 0.6,-1.1 1.3,-2 2.3,-2.7 z m -134.2,39 c 0.4,0.4 0.9,0.8 1.3,1.2 0.1,-0.4 0.3,-0.7 0.4,-1.1 -0.3,0 -0.5,0.1 -0.8,0.1 -0.3,-0.1 -0.6,-0.1 -0.9,-0.2 z m 115.6,-38.8 -6.5,-16.9 -0.1,22.7 c 2.7,-1.6 5.4,-2.8 7.8,-3.5 -0.4,-0.7 -0.8,-1.5 -1.2,-2.3 z m -104.2,48 c 0,-1.7 0.3,-3.2 0.7,-4.4 -1.5,0.5 -3.1,1 -4.6,1.5 1.2,1 2.6,1.9 3.9,2.9 z M 823,190.6 c 0,0.2 0,0.4 -0.1,0.6 -0.1,0.2 -0.1,0.4 -0.3,0.6 -0.1,0.2 -0.2,0.3 -0.3,0.4 0,0 0,0 0,0 l 0.7,1.6 c 0.5,-0.5 0.7,-1.3 0.7,-2 0,-0.9 -0.4,-1.7 -1,-2.3 0.2,0.3 0.3,0.6 0.3,1.1 z m 13.6,19.9 0.2,-0.6 c 0,0 0,0 0,-0.1 h -1.7 l 0.1,-0.2 c -1.3,0.6 -2.5,1.7 -3.6,2.7 -3.7,3.5 -9.9,12 -7.7,16 0.7,0.3 1.3,0.4 1.9,0.4 0.3,0 0.5,0 0.8,-0.1 2.3,-0.5 5.7,-3.3 7.3,-5.1 1.2,-1.5 2.5,-4 2.8,-5.6 v -0.3 l 0.3,-0.4 c 0.1,-0.1 0.2,-0.2 0.3,-0.3 -0.1,-0.8 0,-1.7 0.1,-2.6 0.1,-1.3 0.3,-2.8 -0.2,-3.3 z m 89,-0.9 c 0.1,-0.2 0.6,-0.7 0.7,-0.8 -0.2,0 -0.5,0 -0.8,0 z m 6.3,-14.8 c -0.4,-0.3 -0.7,-0.6 -1,-1 -0.8,1.9 -1.7,3.7 -2.6,5.4 l -0.2,0.5 c -0.9,1.7 -1.8,3.5 -2.5,5.3 l 0.5,-0.2 0.2,0.2 c 0.1,0 0.2,0 0.4,0 1.2,-0.6 2.4,-0.9 3.6,-1.2 v 0 c 1.4,-1.5 2.7,-3 4.1,-4.6 0.9,-1 1.8,-2 2.7,-3 -0.9,0 -1.8,-0.1 -2.7,-0.3 -1,-0.2 -1.8,-0.6 -2.5,-1.1 z m -111.4,-1.7 v 1.2 c 0,0.2 -0.1,0.4 -0.3,0.6 0.1,0 0.3,0 0.4,0 0.3,0 0.5,0 0.7,-0.1 -0.1,-0.1 -0.1,-0.2 -0.2,-0.3 z m 65,12.3 c 0.2,-0.6 0.4,-1.3 0.6,-2 0.3,-0.8 0.6,-1.7 0.8,-2.6 -1.5,1.6 -3,3.4 -4.5,5.2 0.9,-0.3 1.9,-0.5 3.1,-0.6 z m -67,-11.3 v -4.7 c -0.6,0.6 -1,1.4 -1,2.3 0,1 0.4,1.8 1,2.4 z"
         inkscape:connector-curvature="0" />
      <g
         id="g5683">
        <path
           id="path5669"
           d="m 805.2,142.3 c 1,0 1.9,0.1 2.8,0.2 0.9,0.2 1.6,0.5 2.3,1 0.6,0.5 1.1,1.2 1.5,2 0.3,0.9 0.5,2 0.5,3.3 v 12.9 c 0,2.6 0.2,4.7 0.6,6.4 0.4,1.7 1,3 1.8,4 0.8,1 1.7,1.7 2.7,2.1 0.9,0.4 1.9,0.6 3,0.7 0.8,-0.1 1.6,-0.2 2.3,-0.5 1.2,-0.4 2.2,-1.1 3.1,-2 0.9,-0.9 1.6,-2.2 2.2,-3.8 0.6,-1.6 0.8,-3.6 0.8,-6 l 0.1,-20.2 h 1.6 1.4 v 0 h 1.6 c 1,0 2,0.1 2.8,0.3 0.8,0.2 1.6,0.5 2.2,1 0.7,0.5 1.1,1.2 1.5,2 0.3,0.9 0.5,2 0.5,3.3 l -0.1,47.3 h -1.6 -1.4 v 0 h -1.6 c -1,0 -1.9,-0.1 -2.8,-0.3 -0.8,-0.2 -1.6,-0.5 -2.2,-1 -0.7,-0.5 -1.1,-1.2 -1.5,-2 -0.3,-0.9 -0.5,-2 -0.5,-3.3 v -10.3 c -0.2,0.2 -0.5,0.4 -0.8,0.5 -0.8,0.4 -1.7,0.9 -2.8,1.4 -1.1,0.5 -2.4,0.8 -3.9,0.9 -0.7,0.1 -1.4,0.1 -2.1,0 -2.1,0.1 -4.1,-0.2 -6.2,-0.8 -2.3,-0.7 -4.3,-1.9 -6.1,-3.5 -1.8,-1.6 -3.3,-3.8 -4.5,-6.4 -1.2,-2.6 -1.7,-5.8 -1.7,-9.4 v -19.9 h 1.6 1.4 v 0 h 1.5 z"
           class="st0"
           inkscape:connector-curvature="0"
           style="clip-rule:evenodd;fill:#ffffff;fill-rule:evenodd" />
        <path
           id="path5671"
           d="m 940.7,137.2 -3.5,-0.1 c -1,0 -1.9,-0.1 -2.7,-0.3 -0.8,-0.2 -1.6,-0.5 -2.2,-1 -0.6,-0.5 -1.1,-1.2 -1.5,-2 -0.3,-0.9 -0.5,-2 -0.5,-3.3 l -0.1,-23.9 c -3.5,9 -6.2,18 -9.8,27.1 -0.8,0.2 -2.5,0.2 -3.3,0 -0.7,-0.2 -1.5,-0.5 -2.3,-1 -2.2,-1.4 -2.9,-2.7 -4,-4.9 l -7.7,-20 -0.1,29.6 h -3.6 c -1,0 -1.9,-0.1 -2.7,-0.2 -0.8,-0.2 -1.6,-0.5 -2.2,-1 -0.6,-0.5 -1.1,-1.2 -1.5,-2 -0.3,-0.9 -0.5,-2 -0.5,-3.3 v -47 h 2.3 c 1,0 1,-0.1 2.2,0 1.2,0.1 2.5,0.3 3.7,0.8 1.3,0.5 2.5,1.2 3.7,2.3 1.2,1.1 2.3,2.6 3.3,4.6 l 9,22.9 11.9,-30.7 h 5.1 c 1,0 1.9,0.1 2.7,0.3 0.8,0.2 1.6,0.5 2.2,1 0.6,0.5 1.1,1.2 1.5,2 0.3,0.9 0.5,2 0.5,3.3 v 46.8 z"
           class="st0"
           inkscape:connector-curvature="0"
           style="clip-rule:evenodd;fill:#ffffff;fill-rule:evenodd" />
        <path
           id="path5673"
           d="m 867.1,137.3 c -0.7,0.1 -1.4,0.1 -2.1,0 -2,0.1 -4.1,-0.2 -6.2,-0.8 -2.3,-0.7 -4.3,-1.9 -6.1,-3.5 -1.8,-1.6 -3.3,-3.8 -4.4,-6.4 -1.2,-2.6 -1.7,-5.7 -1.7,-9.4 V 83.1 h 1.6 1.4 v 0 h 1.6 c 1,0 2,0.1 2.8,0.2 0.8,0.2 1.6,0.5 2.2,1 0.6,0.5 1.1,1.1 1.5,2 0.3,0.9 0.5,2 0.5,3.3 v 27.2 c 0,2.6 0.2,4.7 0.6,6.4 0.4,1.7 1,3 1.8,4 0.8,1 1.7,1.7 2.7,2.1 0.9,0.4 1.9,0.6 3,0.7 0.8,-0.1 1.5,-0.2 2.3,-0.4 1.2,-0.4 2.2,-1 3.1,-2 0.9,-1 1.6,-2.2 2.2,-3.8 0.6,-1.6 0.9,-3.6 0.9,-6 V 83.1 h 1.6 1.4 v 0 h 1.6 c 1,0 2,0.1 2.8,0.2 0.8,0.2 1.6,0.5 2.2,1 0.7,0.5 1.1,1.1 1.5,2 0.3,0.9 0.5,2 0.5,3.3 v 47.1 h -1.6 -1.4 -0.1 -1.5 c -1.6,0 -3,-0.3 -4.2,-0.7 -0.9,-0.4 -1.6,-1 -2.1,-2 h -0.1 c -0.6,0.4 -1.2,0.9 -2,1.4 -0.8,0.5 -1.7,0.9 -2.8,1.2 -1.2,0.3 -2.3,0.6 -3.5,0.7 z"
           class="st0"
           inkscape:connector-curvature="0"
           style="clip-rule:evenodd;fill:#ffffff;fill-rule:evenodd" />
        <path
           id="path5675"
           d="m 812.2,87.8 v 0.1 c 0.1,0.5 0.1,1.1 0.1,1.7 v 6.1 l -0.1,0.1 v 7 c 0,2.5 0.2,4.7 0.6,6.4 0.4,1.7 1,3 1.8,4 0.8,1 1.7,1.7 2.7,2.1 0.9,0.4 1.9,0.6 3,0.7 0.8,-0.1 1.6,-0.2 2.3,-0.5 1.2,-0.4 2.2,-1.1 3.1,-2 0.9,-0.9 1.6,-2.2 2.2,-3.8 0.6,-1.6 0.8,-3.6 0.8,-6 V 83.8 h 1.6 1.4 v 0 h 1.6 c 1,0 2,0.1 2.8,0.3 0.8,0.2 1.6,0.5 2.2,1 0.7,0.5 1.1,1.2 1.5,2 0.3,0.9 0.5,2 0.5,3.3 v 47 h -1.6 -1.4 v 0 h -1.6 c -1,0 -1.9,-0.1 -2.8,-0.2 -0.8,-0.2 -1.6,-0.5 -2.2,-1 -0.7,-0.5 -1.1,-1.2 -1.5,-2 -0.3,-0.9 -0.5,-2 -0.5,-3.3 v -10.3 c -0.2,0.2 -0.5,0.4 -0.8,0.5 -0.8,0.4 -1.7,0.9 -2.8,1.4 -1.1,0.5 -2.4,0.8 -3.9,0.9 -0.7,0.1 -1.4,0.1 -2.1,0 -2.1,0.1 -4.1,-0.2 -6.2,-0.8 -2.3,-0.7 -4.3,-1.9 -6.1,-3.5 -1.8,-1.6 -3.3,-3.8 -4.5,-6.4 -1.2,-2.6 -1.7,-5.8 -1.7,-9.4 v -5.4 l 0.1,-0.1 V 83.1 h 1.6 1.4 v 0 h 1.6 c 1,0 2,0.1 2.8,0.2 0.8,0.2 1.6,0.5 2.2,1 0.7,0.5 1.1,1.1 1.5,2 0.2,0.4 0.3,0.9 0.4,1.5 z"
           class="st0"
           inkscape:connector-curvature="0"
           style="clip-rule:evenodd;fill:#ffffff;fill-rule:evenodd" />
        <path
           id="path5677"
           d="m 940.7,195.7 -3.5,-0.1 c -1,0 -1.9,-0.1 -2.7,-0.2 -0.8,-0.2 -1.6,-0.5 -2.2,-1 -0.6,-0.5 -1.1,-1.2 -1.5,-2 -0.3,-0.9 -0.5,-2 -0.5,-3.3 l -0.1,-23.9 c -3.5,9 -6.2,18 -9.8,27.1 -0.8,0.2 -2.5,0.2 -3.3,0 -0.7,-0.2 -1.5,-0.5 -2.3,-1 -2.2,-1.4 -2.9,-2.7 -4,-4.9 l -7.7,-20 -0.1,29.6 h -3.6 c -1,0 -1.9,-0.1 -2.7,-0.2 -0.8,-0.2 -1.6,-0.5 -2.2,-1 -0.6,-0.5 -1.1,-1.2 -1.5,-2 -0.3,-0.9 -0.5,-2 -0.5,-3.3 v -47 h 2.3 c 1,0 1,-0.1 2.2,0 1.2,0.1 2.5,0.3 3.7,0.8 1.3,0.5 2.5,1.2 3.7,2.3 1.2,1.1 2.3,2.6 3.3,4.6 l 9,22.9 11.9,-30.7 h 5.1 c 1,0 1.9,0.1 2.7,0.3 0.8,0.2 1.6,0.5 2.2,1 0.6,0.5 1.1,1.2 1.5,2 0.3,0.9 0.5,2 0.5,3.3 v 46.7 z"
           class="st0"
           inkscape:connector-curvature="0"
           style="clip-rule:evenodd;fill:#ffffff;fill-rule:evenodd" />
        <path
           id="path5679"
           d="m 867.1,196.3 c -0.7,0.1 -1.4,0.1 -2.1,0 -2,0.1 -4.1,-0.2 -6.2,-0.8 -2.3,-0.7 -4.3,-1.9 -6.1,-3.5 -1.8,-1.6 -3.3,-3.8 -4.4,-6.4 -1.2,-2.6 -1.7,-5.7 -1.7,-9.4 V 142 h 1.6 1.4 v 0 h 1.6 c 1,0 2,0.1 2.8,0.3 0.8,0.2 1.6,0.5 2.2,1 0.6,0.5 1.1,1.1 1.5,2 0.3,0.9 0.5,2 0.5,3.3 v 27.2 c 0,2.6 0.2,4.7 0.6,6.4 0.4,1.7 1,3 1.8,4 0.8,1 1.7,1.7 2.7,2.1 0.9,0.4 1.9,0.6 3,0.7 0.8,-0.1 1.5,-0.2 2.3,-0.4 1.2,-0.4 2.2,-1 3.1,-2 0.9,-1 1.6,-2.2 2.2,-3.8 0.6,-1.6 0.9,-3.6 0.9,-6 v -34.6 h 1.6 1.4 v 0 h 1.6 c 1,0 2,0.1 2.8,0.3 0.8,0.2 1.6,0.5 2.2,1 0.7,0.5 1.1,1.1 1.5,2 0.3,0.9 0.5,2 0.5,3.3 v 47.1 h -1.6 -1.4 -0.1 -1.5 c -1.6,0 -3,-0.2 -4.2,-0.7 -0.9,-0.4 -1.6,-1 -2.1,-2 h -0.1 c -0.6,0.4 -1.2,0.9 -2,1.4 -0.8,0.5 -1.7,0.9 -2.8,1.2 -1.2,0.1 -2.3,0.4 -3.5,0.5 z"
           class="st0"
           inkscape:connector-curvature="0"
           style="clip-rule:evenodd;fill:#ffffff;fill-rule:evenodd" />
        <path
           id="path5681"
           d="m 820.6,188 c 2.1,0 3.8,1.7 3.8,3.8 0,2.1 -1.7,3.8 -3.8,3.8 -2.1,0 -3.8,-1.7 -3.8,-3.8 0,-2.1 1.7,-3.8 3.8,-3.8 z m -0.7,1.7 c 0,0 0,0 0,0 l -0.1,1.8 c 0,0.1 0,0.1 0.1,0.1 h 1.1 c 0,0 0.1,0 0.1,0 0,0 0,0 0.1,0 0.2,-0.1 0.3,-0.3 0.4,-0.4 0.1,-0.2 0.1,-0.3 0.1,-0.5 0,-0.1 0,-0.2 0,-0.3 0,-0.1 -0.1,-0.2 -0.1,-0.3 -0.1,-0.1 -0.2,-0.2 -0.3,-0.2 -0.1,-0.1 -0.3,-0.1 -0.5,-0.1 h -0.9 z m 2.5,0.9 c 0,-0.5 -0.1,-0.8 -0.4,-1.1 -0.3,-0.3 -0.7,-0.4 -1.2,-0.4 h -1.5 c -0.1,0 -0.1,0 -0.1,0.1 v 5.2 c 0,0.1 0,0.1 0.1,0.1 h 0.5 c 0.1,0 0.1,0 0.1,-0.1 v -2 c 0,-0.1 0,-0.1 0.1,-0.1 h 0.8 c 0,0 0.1,0 0.1,0 0,0 0,0 0,0.1 l 0.9,2 c 0,0.1 0.1,0.1 0.1,0.1 0,0 0.1,0 0.2,0 h 0.5 c 0,0 0.1,0 0.1,0 0,0 0,-0.1 0,-0.2 -0.2,-0.5 -0.4,-0.9 -0.6,-1.2 -0.1,-0.3 -0.2,-0.5 -0.3,-0.6 -0.1,-0.1 -0.1,-0.2 -0.1,-0.3 0,0 0,-0.1 0,-0.1 0,0 0,0 0,-0.1 0.1,-0.1 0.2,-0.2 0.3,-0.3 0.1,-0.1 0.2,-0.2 0.3,-0.4 0.1,-0.1 0.1,-0.3 0.2,-0.4 -0.1,-0.1 -0.1,-0.2 -0.1,-0.3 z m -1.8,-3.4 c -2.5,0 -4.6,2 -4.6,4.6 0,2.5 2,4.6 4.6,4.6 2.5,0 4.6,-2 4.6,-4.6 0,-2.6 -2.1,-4.6 -4.6,-4.6 z"
           class="st0"
           inkscape:connector-curvature="0"
           style="clip-rule:evenodd;fill:#ffffff;fill-rule:evenodd" />
      </g>
      <path
         id="path5685"
         d="m 933.4,207.4 c -1.2,1 -2.1,2.4 -3.1,3.6 l 0.3,0.1 -0.2,0.4 c -0.3,0.5 -1,1.1 -1,1.6 v 0.2 l -0.1,0.1 c -1,1.5 -4.7,3.3 -5.3,0.9 -0.3,-1.4 1.1,-3.2 1.9,-4.2 0.4,-0.5 1.3,-1.5 1.9,-2.3 -0.5,0.1 -1.3,0.3 -1.5,0.3 -0.3,0 -1.3,-0.1 -1.7,-0.1 l 0.2,1.4 -1,-1.1 c -0.1,0.1 -0.3,0.1 -0.5,0.1 -1,2.6 -2.4,5.9 -2.7,8.6 v 0.1 l -0.1,0.1 c -0.6,0.8 -2.1,1.3 -3,0.9 h -0.1 l -0.1,-0.1 c -0.5,-0.5 -0.2,-0.9 0,-1.3 -1.2,-2.2 0,-5 0.8,-7.2 1.8,-5.1 4.3,-10.1 6.7,-14.9 -0.6,-0.7 0,-1.4 -0.3,-1.7 l -0.4,-0.5 0.5,-0.3 c 0.4,-0.2 0.6,-0.8 0.6,-1.2 v -0.2 l 0.2,-0.2 c 1.3,-1.3 2,-2.9 3.6,-3.9 l 0.1,-0.1 h 0.1 c 0.5,0 1,0 1.4,0 h 0.3 l 0.1,0.3 c 0.2,0.4 0.5,0.9 0.8,1.2 l 0.2,0.2 -0.1,0.3 c -1.2,3.5 -2.8,6.8 -4.5,10.2 -1.2,2.5 -2.5,5 -3.5,7.6 0.2,-0.1 0.4,-0.1 0.7,-0.2 0,-0.3 0.2,-0.5 0.5,-0.6 l 0.3,-0.1 0.1,0.2 c 0.3,0 0.5,-0.1 0.8,-0.1 1.3,-0.6 2.5,-0.9 3.9,-1.3 6,-6.6 12,-14 18.8,-19.8 1.2,-1.1 4,-3.3 5.7,-3.3 0,0 0.1,0 0.1,0 1,0 1.2,0.7 1.8,0.8 l 0.3,0.1 v 0.3 c 0.3,2 -0.7,4 -1.3,5.9 -2.2,7.3 -4.5,15.6 -4.8,23.2 v 0.2 l -0.2,0.1 c -0.5,0.4 -0.7,1 -1.2,1.5 l -0.1,0.1 h -0.2 c -2.6,0.1 -2.8,-2.3 -2.7,-4.3 -2.8,-2 -9.2,-1.4 -13,-1.6 z m -20.7,-13.7 c -0.6,-0.1 -1.5,0.2 -2,0.2 h -0.4 l -0.1,0.4 c -0.2,1.2 -1.4,2.1 -1.9,3.3 -0.8,2.1 1.7,3.2 3.5,2 2,-1.3 6.4,-5.3 6.9,-7.7 0.7,-3 -3.1,-3.3 -5.1,-3 -5.9,0.9 -16.1,7 -18.9,12.4 -0.6,1.1 -0.7,2 -1,3.2 v 0.1 0.1 c 0.5,2.4 3.4,3.3 5.5,3.5 3.8,0.4 10.6,-1 14,0.5 -0.3,0.9 -1.2,1.3 -1.8,2 -3.2,1.7 -6.2,3.6 -9.6,4.9 -1.5,0.6 -5.3,1.9 -7.3,2 0.3,-0.3 0.7,-0.7 0.7,-1.2 0.7,-0.3 0.8,-0.9 1.5,-1 l 0.3,-0.1 V 215 c 0.1,-0.9 -0.4,-2.1 -1.5,-1.7 h -0.1 l -0.1,0.1 c -0.4,0.4 -0.4,0.8 -0.5,1 -0.2,0 -0.5,0 -0.7,0 h -0.3 l -0.1,0.3 c -0.1,0.3 -2.3,1.6 -2.9,2.6 -1.4,2.4 -0.4,4.2 2.4,4.2 h 0.1 0.1 c 0.3,-0.1 0.7,-0.2 1,-0.3 3,-0.1 5.7,-1.3 8.4,-2.4 1,-0.4 2.1,-0.7 3.1,-1.1 0.7,-0.3 1.3,-0.9 2,-1.2 2.8,-1.3 5.5,-2.9 7.9,-4.8 h 0.1 v -0.1 c 1.2,-1.6 2.2,-3.1 1.6,-5.2 v -0.1 l -0.1,-0.1 c -2.2,-2.4 -7.7,-1.8 -10.7,-1.8 -1.5,0 -7,0.6 -7.9,-0.8 -0.4,-0.6 0.3,-1.7 0.7,-2.2 2.1,-3 9.5,-7.5 13.1,-8.3 0.2,0 0.6,-0.1 0.9,-0.1 -0.2,0.2 -0.5,0.5 -0.8,0.7 z m -23,15.3 c -1.7,4.2 -2,8.6 -3,12.9 -0.3,1.6 -1.1,4.3 -3.2,4.1 -1.4,-0.1 -1.4,-2.7 -1.3,-3.7 0.3,-4.4 1.5,-8.2 2.6,-12.4 -2.9,0.4 -5.8,1.5 -8.5,2.5 -2.8,3.6 -5.5,7.3 -8,11.2 -1.2,1.8 -2.2,5.9 -5.1,5.3 -1.5,-0.3 -0.8,-2.9 -0.4,-3.8 1.2,-3.2 3.8,-6 5.9,-8.8 -0.2,0 -0.4,0 -0.6,0 -1.4,0.5 -2.9,2.1 -4.4,2.2 -1.8,0.1 -2.3,-1.7 -1.3,-3 0.8,-1 4.4,-2.6 5.7,-3.3 1.9,-1 3.7,-2 5.7,-2.8 4.2,-4.8 8.7,-11.6 13.7,-15.4 1.4,-1.1 4.5,-2.6 5.8,-0.6 l 0.1,0.1 v 0.1 c 0,4.3 -1.7,8.1 -2.8,12.2 1,0.3 2.3,0.1 3,1.2 l 0.2,0.2 -0.1,0.3 c -1.2,1.9 -2.6,1.7 -4,1.5 z m 46.8,-5.3 c 3.5,-0.3 7.5,-0.2 10.9,0.5 1.1,-5.6 2.8,-11.4 4.5,-16.9 -5.5,5.1 -10.6,10.6 -15.4,16.4 z m -55.9,3.4 c 1.8,-0.5 3.5,-0.9 5.3,-1.2 0.5,-1.9 1.7,-5.1 2.1,-7.2 -2.6,2.7 -5,5.5 -7.4,8.4 z"
         class="st1"
         inkscape:connector-curvature="0"
         style="clip-rule:evenodd;fill:#ed1651;fill-rule:evenodd" />
      <path
         id="path5687"
         d="m 810.3,239.1 c 0.1,0.3 0,0.5 0.4,0.7 l 0.5,0.3 -0.3,0.4 c -0.2,0.3 -0.7,0.4 -0.7,0.7 v 2.7 l -1,-2.5 c 0,-0.1 -0.1,-0.3 -0.2,-0.4 -0.1,-0.1 -0.3,-0.1 -0.4,-0.2 l -0.6,-0.4 0.6,-0.4 c 0.1,-0.1 0,-0.8 -0.4,-0.8 h -0.5 l 0.1,-0.5 c 0,-0.1 0,-0.1 0,-0.1 0,0 -0.1,0 -0.1,0 l -0.3,-0.1 -0.1,-0.2 c -1,-2.6 -0.5,-6.2 0.4,-9.1 -3,1.1 -6.1,2 -9.2,3 -0.9,1.8 -1.3,3.9 -2.3,5.7 0.2,0.9 -0.7,1.7 -0.8,2.1 l 0.2,0.2 -0.1,0.3 c -0.2,0.5 -0.5,0.6 -0.6,0.7 0.2,2.2 -1.5,3.6 -1.3,5.4 v 0.4 l -0.3,0.2 c -0.4,0.2 -0.4,1.5 -1,2 l -0.2,0.2 -0.2,-0.1 c -1.1,-0.3 -0.7,-1.4 -0.5,-2.2 -0.6,-0.7 -0.2,-2.1 0.2,-2.9 -0.4,-0.7 -0.1,-1.7 0.5,-2.3 -0.1,-0.3 -0.2,-0.5 -0.2,-1 v -0.1 l 0.1,-0.1 c 1.2,-1.5 0,-3 1.7,-5.1 0.2,-0.7 0.2,-1.3 0.3,-1.9 -3,0.7 -8.4,2.5 -9.8,-0.5 l -0.1,-0.2 0.1,-0.2 c 0.4,-0.6 1.4,-0.7 1.5,-1 l 0.1,-0.3 h 0.3 c 0.6,-0.1 0.7,0.1 1.3,-0.1 l 0.7,-0.2 -0.1,0.7 c 0.1,0 0.2,0.1 0.3,0.1 2.6,-0.1 4.5,-1 6.9,-1.6 0.8,-1.8 1.3,-3.7 2.2,-5.5 -1.2,0.1 -2.6,0.7 -3.3,-0.6 -0.4,-0.7 0,-1.4 0.4,-2 1.1,-1.4 3,-2.7 4.3,-4.2 2.6,-2.9 5.1,-6.1 7.1,-9.5 0.9,-1.4 2,-3.7 3.2,-4.8 1.1,-1 4.3,-1.6 4.4,0.5 0,1.4 -2.4,5 -3.3,6.2 -1.3,1.9 -2.8,3.8 -3.9,5.9 -2.2,4 -4.2,8.1 -6.2,12.3 2.9,-1 5.9,-2 8.8,-3.1 0.1,-0.1 0.1,-0.3 0.3,-0.3 2.5,-7.2 7.4,-15.2 11.5,-21.6 1.2,-1.9 4.9,-1.1 4,1.3 -0.4,1 -1.2,1.9 -1.8,2.8 -3,4.5 -5.6,9.6 -7.9,14.5 0,0 0.1,0 0.1,-0.1 0.2,-0.1 0.4,0 0.6,0.1 0.7,0.4 0.7,0.9 0.3,1.1 0,0.1 0,0.3 -0.1,0.5 l -0.1,0.2 h -0.2 c -0.8,0.2 -0.8,2.1 -2.5,2.4 -1.1,3.1 -2.6,8 -2.5,11.2 v 0.1 0.1 c 0,0.1 -0.1,0.3 -0.2,0.4 0.1,0.1 0.2,0.3 0.1,0.5 0.2,0 0,0.2 -0.2,0.3 z m 47.9,-36.3 c -3.8,7.6 -7.4,16.5 -9.2,24.8 0.1,0 0.2,0 0.3,0 l 0.6,0.1 -0.3,0.6 c -0.4,0.7 -1,1.7 -0.7,2.5 l 0.1,0.2 -0.2,0.2 c -0.2,0.2 -0.6,0.5 -0.7,0.8 l -0.1,0.2 -0.2,0.1 c -1,0.4 -3.1,0.5 -3.8,-0.5 l -0.1,-0.1 v -0.2 c 0.2,-8.5 5.1,-19.6 8.8,-27.5 -2.1,0.6 -4.2,1.4 -6.3,1.9 -0.3,0.3 -0.7,0.6 -0.8,1 l -0.2,0.7 -0.6,-0.4 c -0.1,-0.1 -1.4,0.2 -1.6,0.2 H 843 l -0.1,-0.1 c -2.5,-1.8 1.8,-4.1 3.1,-4.7 h 0.1 0.1 c 0.2,0 0.5,0 0.7,0 2.2,-1.2 5,-1.5 7.4,-2.3 0.3,-2.5 4.9,-3.2 5,-1.2 3.7,-0.8 7.3,-1.3 11,-1.8 h 0.3 l 0.1,0.2 c 0.1,0.1 0.3,0.1 0.6,0.2 0.6,-0.3 1.2,-0.4 1.7,0 0.9,-0.5 2.2,0 3,0.5 l 0.8,0.5 -0.9,0.4 c -1.5,0.6 -3,0.4 -4.3,1 h -0.1 -0.1 c -0.4,0 -0.5,0 -0.7,-0.2 -1.4,1 -2.8,0.4 -4.3,1.1 h -0.1 -0.1 c -2.4,0.4 -5.3,0.8 -8,1.8 z m -16.9,11.7 c 0.7,-1.3 -0.2,-1.7 -0.4,-2.6 -0.1,-0.5 0.4,-1.1 0.1,-1.8 -0.2,-0.5 -0.6,-0.4 -0.3,-0.9 l 0.2,-0.2 -0.1,-0.2 c -0.1,-0.3 -0.3,-0.4 -0.4,-0.5 0.4,-0.3 0.7,-0.6 0.9,-1.3 0.6,-2.9 -4.1,-2.4 -5.1,-3.5 l -0.3,-0.3 -0.3,0.2 c -0.2,0.1 -1.9,-0.1 -2.4,0 H 833 l -0.1,0.2 c -0.6,0.7 -1.4,1.1 -2.1,1.5 l -0.2,0.1 -0.1,0.2 c -0.3,0.7 -0.5,1.5 -1.2,2 l -0.1,0.1 v 0.2 c -0.1,0.4 0,0.5 0.2,0.8 0,0 0,0.1 0,0.1 -3.7,3.4 -7.2,7.5 -9.4,12.1 -2.2,4.6 -3.8,12.1 3.4,12.7 7.7,0.7 13.7,-5.9 16.9,-12.1 l 0.1,-0.1 v -0.1 c 0,-0.8 0.3,-1.7 0.8,-2.3 l 0.2,-0.2 -0.1,-0.2 c -0.2,-0.8 0.2,-2 0.5,-2.7 v -0.1 -0.1 c -0.1,-0.7 -0.3,-0.8 -0.5,-1 z m -17.8,14.3 c 1.1,0.5 2,0.7 3.3,0.5 2.5,-0.5 6,-3.4 7.7,-5.3 1.2,-1.5 2.6,-4 2.9,-5.9 V 218 l 0.1,-0.1 c 0.2,-0.3 0.4,-0.5 0.5,-0.8 -0.3,-1.9 0.8,-5.2 -0.4,-6.5 l -0.2,-0.2 0.1,-0.3 c 0,-0.1 0.1,-0.2 0.1,-0.3 -0.2,-0.2 -0.2,-0.4 -0.4,-0.6 h -0.9 l 0.4,-0.6 c 0,0 -0.1,-0.1 -0.1,-0.1 -2,0.4 -3.9,2 -5.3,3.4 -3.2,2.9 -10.7,12.3 -7.8,16.9 z"
         class="st1"
         inkscape:connector-curvature="0"
         style="clip-rule:evenodd;fill:#ed1651;fill-rule:evenodd" />
    </g>
  </g>
  <style
     id="style5663"
     type="text/css">
	.st0{fill-rule:evenodd;clip-rule:evenodd;fill:#FFFFFF;}
	.st1{fill-rule:evenodd;clip-rule:evenodd;fill:#ED1651;}
</style>
</svg>
