<?xml version="1.0" encoding="utf-8"?>
<!-- Generator: Adobe Illustrator 22.1.0, SVG Export Plug-In . SVG Version: 6.00 Build 0)  -->
<svg version="1.1" id="Режим_изоляции"
	 xmlns="http://www.w3.org/2000/svg" xmlns:xlink="http://www.w3.org/1999/xlink" x="0px" y="0px" viewBox="0 0 64.4 64.6"
	 style="enable-background:new 0 0 64.4 64.6;" xml:space="preserve">
<style type="text/css">
	.st0{fill-rule:evenodd;clip-rule:evenodd;}
</style>
<path class="st0" d="M45.2,6.1c3.1,0.1,4.8,0.7,6,1.1c1.5,0.6,2.6,1.3,3.7,2.4c1.1,1.1,1.8,2.2,2.4,3.7c0.4,1.1,1,2.8,1.1,6
	c0.4,8.6,0.4,17.4,0,26c-0.1,3.1-0.7,4.8-1.1,6c-0.6,1.5-1.3,2.6-2.4,3.7c-1.1,1.1-2.2,1.8-3.7,2.4c-1.1,0.4-2.8,1-6,1.1
	c-8.6,0.4-17.4,0.4-26,0c-3.1-0.1-4.8-0.7-6-1.1c-1.5-0.6-2.6-1.3-3.7-2.4c-1.1-1.1-1.8-2.2-2.4-3.7c-0.4-1.1-1-2.8-1.1-6
	c-0.4-8.6-0.4-17.4,0-26c0.1-3.1,0.7-4.8,1.1-6c0.6-1.5,1.3-2.6,2.4-3.7c1.1-1.1,2.2-1.8,3.7-2.4c1.1-0.4,2.8-1,6-1.1
	C27.8,5.7,36.6,5.7,45.2,6.1L45.2,6.1z M18.9,0.3c-3.4,0.2-5.8,0.7-7.8,1.5C9,2.7,7.2,3.8,5.4,5.6c-1.8,1.8-2.9,3.6-3.7,5.7
	c-0.8,2-1.3,4.4-1.5,7.8c-0.4,8.8-0.4,17.7,0,26.6c0.2,3.4,0.7,5.8,1.5,7.8c0.8,2.1,1.9,3.9,3.7,5.7c1.8,1.8,3.6,2.9,5.7,3.7
	c2,0.8,4.4,1.3,7.8,1.5c8.8,0.4,17.7,0.4,26.6,0c3.4-0.2,5.8-0.7,7.8-1.5c2.1-0.8,3.9-1.9,5.7-3.7c1.8-1.8,2.9-3.6,3.7-5.7
	c0.8-2,1.3-4.4,1.5-7.8c0.4-8.8,0.4-17.7,0-26.6c-0.2-3.4-0.7-5.8-1.5-7.8c-0.8-2.1-1.9-3.9-3.7-5.7c-1.8-1.8-3.6-2.9-5.7-3.7
	c-2-0.8-4.4-1.3-7.8-1.5C36.7-0.1,27.7-0.1,18.9,0.3L18.9,0.3z M32.2,15.8c-9.1,0-16.5,7.4-16.5,16.5c0,9.1,7.4,16.5,16.5,16.5
	c9.1,0,16.5-7.4,16.5-16.5C48.7,23.2,41.3,15.8,32.2,15.8L32.2,15.8z M32.2,43.1c-5.9,0-10.7-4.8-10.7-10.7
	c0-5.9,4.8-10.7,10.7-10.7c5.9,0,10.7,4.8,10.7,10.7C42.9,38.3,38.1,43.1,32.2,43.1L32.2,43.1z M53.3,15.2c0,2.1-1.7,3.9-3.9,3.9
	c-2.1,0-3.9-1.7-3.9-3.9c0-2.1,1.7-3.9,3.9-3.9C51.5,11.3,53.3,13,53.3,15.2L53.3,15.2z"/>
</svg>
