<?xml version="1.0" encoding="utf-8"?>
<!-- Generator: Adobe Illustrator 22.1.0, SVG Export Plug-In . SVG Version: 6.00 Build 0)  -->
<svg version="1.1" id="Слой_1" xmlns="http://www.w3.org/2000/svg" xmlns:xlink="http://www.w3.org/1999/xlink" x="0px" y="0px"
	 viewBox="0 0 322 271" style="enable-background:new 0 0 322 271;" xml:space="preserve">
<style type="text/css">
	.st0{fill-rule:evenodd;clip-rule:evenodd;fill:#D24A44;}
</style>
<g>
	<g>
		<path class="st0" d="M108.2,5.8H57.6v51.1h50.6V5.8z M55.6,5.8H5l50.6,51.1V5.8z M109.9,56.9h50.6V5.8h-50.6V56.9z M212.6,5.8H162
			v51.1h50.6V5.8z M213.8,5.8v51.1h50.6L213.8,5.8z M213.8,109.4h50.6V58.3h-50.6V109.4z M163.2,161.7h50.6v-51.1h-50.6V161.7z
			 M213.8,213.1h50.6V162h-50.6V213.1z M264.4,213.1v51.1H315v-51.1H264.4z M57.6,265.2h50.6v-51.1H57.6V265.2z M56.4,265.2v-51.1
			H5.8L56.4,265.2z M108.2,214.1h50.6V163h-50.6V214.1z M56.4,161.6H5.8v51.1h50.6V161.6z M5.8,160.5h50.6v-51.1H5.8V160.5z"/>
	</g>
</g>
</svg>
