<?xml version="1.0" encoding="utf-8"?><svg width="871" height="769" viewBox="0 0 871 769" xmlns="http://www.w3.org/2000/svg" xmlns:xlink="http://www.w3.org/1999/xlink"><svg id="arrow_slider" viewBox="0 0 46 86" width="46" height="86" x="704.9" y="356" xmlns="http://www.w3.org/2000/svg"><style>.ast0{fill:#956638}</style><path class="ast0" d="M0 995.4c0 .3.1.5.3.7l44 42c.4.4 1 .4 1.4 0 .4-.4.4-1 0-1.4L2.4 995.4l43.2-41.3c.4-.4.4-1 0-1.4-.4-.4-1-.4-1.4 0l-44 42c-.1.1-.2.4-.2.7z" transform="translate(0 -952.362)"/></svg><svg id="icon_ig" viewBox="0 0 64.4 64.6" width="64.4" height="64.6" x="750.9" y="356" xmlns="http://www.w3.org/2000/svg"><style>.bst0{fill-rule:evenodd;clip-rule:evenodd}</style><path class="bst0" d="M45.2 6.1c3.1.1 4.8.7 6 1.1 1.5.6 2.6 1.3 3.7 2.4 1.1 1.1 1.8 2.2 2.4 3.7.4 1.1 1 2.8 1.1 6 .4 8.6.4 17.4 0 26-.1 3.1-.7 4.8-1.1 6-.6 1.5-1.3 2.6-2.4 3.7-1.1 1.1-2.2 1.8-3.7 2.4-1.1.4-2.8 1-6 1.1-8.6.4-17.4.4-26 0-3.1-.1-4.8-.7-6-1.1-1.5-.6-2.6-1.3-3.7-2.4-1.1-1.1-1.8-2.2-2.4-3.7-.4-1.1-1-2.8-1.1-6-.4-8.6-.4-17.4 0-26 .1-3.1.7-4.8 1.1-6 .6-1.5 1.3-2.6 2.4-3.7 1.1-1.1 2.2-1.8 3.7-2.4 1.1-.4 2.8-1 6-1.1 8.6-.4 17.4-.4 26 0zM18.9.3c-3.4.2-5.8.7-7.8 1.5-2.1.9-3.9 2-5.7 3.8-1.8 1.8-2.9 3.6-3.7 5.7-.8 2-1.3 4.4-1.5 7.8-.4 8.8-.4 17.7 0 26.6.2 3.4.7 5.8 1.5 7.8.8 2.1 1.9 3.9 3.7 5.7 1.8 1.8 3.6 2.9 5.7 3.7 2 .8 4.4 1.3 7.8 1.5 8.8.4 17.7.4 26.6 0 3.4-.2 5.8-.7 7.8-1.5 2.1-.8 3.9-1.9 5.7-3.7 1.8-1.8 2.9-3.6 3.7-5.7.8-2 1.3-4.4 1.5-7.8.4-8.8.4-17.7 0-26.6-.2-3.4-.7-5.8-1.5-7.8-.8-2.1-1.9-3.9-3.7-5.7-1.8-1.8-3.6-2.9-5.7-3.7-2-.8-4.4-1.3-7.8-1.5-8.8-.5-17.8-.5-26.6-.1zm13.3 15.5c-9.1 0-16.5 7.4-16.5 16.5s7.4 16.5 16.5 16.5 16.5-7.4 16.5-16.5-7.4-16.5-16.5-16.5zm0 27.3c-5.9 0-10.7-4.8-10.7-10.7 0-5.9 4.8-10.7 10.7-10.7 5.9 0 10.7 4.8 10.7 10.7 0 5.9-4.8 10.7-10.7 10.7zm21.1-27.9c0 2.1-1.7 3.9-3.9 3.9-2.1 0-3.9-1.7-3.9-3.9 0-2.1 1.7-3.9 3.9-3.9 2.1 0 3.9 1.7 3.9 3.9z"/></svg><svg viewBox="0 0 548.4 311.2" width="548.4" height="311.2" id="icon_vk" xmlns="http://www.w3.org/2000/svg"><path d="M545.5 282.5c-.7-1.4-1.3-2.6-1.9-3.6-9.5-17.1-27.7-38.2-54.5-63.1l-.6-.6-.3-.3-.3-.3h-.3c-12.2-11.6-19.9-19.4-23.1-23.4-5.9-7.6-7.2-15.3-4-23.1 2.3-5.9 10.9-18.4 25.7-37.4 7.8-10.1 14-18.2 18.6-24.3 32.9-43.8 47.2-71.8 42.8-83.9l-1.7-2.8c-1.1-1.7-4.1-3.3-8.8-4.7-4.8-1.4-10.9-1.7-18.3-.7l-82.2.6c-1.3-.5-3.2-.4-5.7.1-2.5.6-3.7.9-3.7.9l-1.4.7-1.1.9c-1 .6-2 1.6-3.1 3s-2.1 3.1-2.8 5c-9 23-19.1 44.4-30.6 64.2-7 11.8-13.5 22-19.4 30.7-5.9 8.7-10.8 15-14.8 19.1-4 4.1-7.6 7.4-10.9 9.8-3.2 2.5-5.7 3.5-7.4 3.1-1.7-.4-3.3-.8-4.9-1.1-2.7-1.7-4.8-4-6.4-7-1.6-3-2.7-6.7-3.3-11.1-.6-4.5-.9-8.3-1-11.6-.1-3.2 0-7.8.1-13.7.2-5.9.3-9.9.3-12 0-7.2.1-15.1.4-23.6.3-8.5.5-15.2.7-20.1.2-4.9.3-10.2.3-15.7s-.3-9.8-1-13c-.7-3.1-1.7-6.2-3-9.1-1.3-2.9-3.3-5.2-5.9-6.9-2.6-1.6-5.8-2.9-9.6-3.9-10.1-2.3-22.9-3.5-38.5-3.7-35.4-.4-58.1 1.9-68.2 6.9-4 2.1-7.6 4.9-10.8 8.6-3.4 4.2-3.9 6.5-1.4 6.9 11.4 1.7 19.5 5.8 24.3 12.3l1.7 3.4c1.3 2.5 2.7 6.9 4 13.1 1.3 6.3 2.2 13.2 2.6 20.8.9 13.9.9 25.8 0 35.7-1 9.9-1.9 17.6-2.7 23.1-.9 5.5-2.1 10-3.9 13.4-1.7 3.4-2.9 5.5-3.4 6.3-.6.8-1 1.2-1.4 1.4-2.5.9-5 1.4-7.7 1.4s-5.9-1.3-9.7-4c-3.8-2.7-7.8-6.3-11.8-11-4.1-4.7-8.7-11.2-13.9-19.6-5.1-8.4-10.5-18.3-16-29.7l-4.6-8.3c-2.9-5.3-6.8-13.1-11.7-23.3-5-10.2-9.3-20-13.1-29.6-1.5-4-3.8-7-6.9-9.1l-1.4-.9c-.9-.8-2.5-1.6-4.6-2.4-2.1-.9-4.3-1.5-6.6-1.9l-78.2.6c-8 0-13.4 1.8-16.3 5.4l-1.1 1.7C.3 22.4 0 23.9 0 26c0 2.1.6 4.7 1.7 7.7C13.1 60.6 25.6 86.4 39 111.4s25.1 45 35 60.2c9.9 15.2 20 29.6 30.3 43.1s17.1 22.2 20.4 26c3.3 3.8 6 6.7 7.9 8.6l7.1 6.9c4.6 4.6 11.3 10 20.1 16.4 8.9 6.4 18.7 12.7 29.4 18.9 10.8 6.2 23.3 11.2 37.5 15.1 14.3 3.9 28.2 5.5 41.7 4.7h32.8c6.7-.6 11.7-2.7 15.1-6.3l1.1-1.4c.8-1.1 1.5-2.9 2.1-5.3.7-2.4 1-5 1-7.9-.2-8.2.4-15.6 1.9-22.1 1.4-6.6 3-11.5 4.9-14.8 1.8-3.3 3.9-6.1 6.1-8.4 2.3-2.3 3.9-3.7 4.9-4.1.9-.5 1.7-.8 2.3-1 4.6-1.5 9.9 0 16.1 4.4 6.2 4.5 12 10 17.4 16.6 5.4 6.6 11.9 13.9 19.6 22.1 7.6 8.2 14.3 14.3 20 18.3l5.7 3.4c3.8 2.3 8.8 4.4 14.9 6.3 6.1 1.9 11.4 2.4 16 1.4l73.1-1.1c7.2 0 12.9-1.2 16.8-3.6 4-2.4 6.4-5 7.1-7.9.8-2.9.8-6.1.1-9.7-.6-3.7-1.3-6.2-1.9-7.7z"/></svg><svg id="icon_youtube" viewBox="0 0 121.5 85" width="121.5" height="85" x="704.9" y="271" xmlns="http://www.w3.org/2000/svg"><style>.dst0{fill:#232323}</style><path class="dst0" d="M118.9 13.3c-1.4-5.2-5.5-9.3-10.7-10.7C98.7 0 60.7 0 60.7 0s-38 0-47.5 2.5C8.1 3.9 3.9 8.1 2.5 13.3 0 22.8 0 42.5 0 42.5s0 19.8 2.5 29.2C3.9 76.9 8 81 13.2 82.4 22.8 85 60.7 85 60.7 85s38 0 47.5-2.5c5.2-1.4 9.3-5.5 10.7-10.7 2.5-9.5 2.5-29.2 2.5-29.2s.1-19.8-2.5-29.3zM48.6 60.7V24.3l31.6 18.2-31.6 18.2z"/></svg><svg id="lines1" viewBox="0 0 322.7 65.3" width="322.7" height="65.3" y="481.9" xmlns="http://www.w3.org/2000/svg"><style>.est0{fill-rule:evenodd;clip-rule:evenodd;fill:none;stroke:#637583;stroke-miterlimit:10;stroke-dasharray:6,8}</style><path class="est0" d="M6.5 9c75.3 48 213.1 68 313.3 30.3"/></svg><svg id="lines2" viewBox="0 0 156.5 227.8" width="156.5" height="227.8" x="548.4" y="271" xmlns="http://www.w3.org/2000/svg"><style>.fst0{fill-rule:evenodd;clip-rule:evenodd;fill:none;stroke:#637583;stroke-miterlimit:10;stroke-dasharray:6,8}</style><path class="fst0" d="M5.7 224.3c104.7-30 152.3-109.9 144-225M5.7 224.3c104.7-30 152.3-109.9 144-225"/></svg><svg id="lines3" viewBox="0 0 365.3 170.7" width="365.3" height="170.7" y="311.2" xmlns="http://www.w3.org/2000/svg"><style>.gst0,.gst1{fill:none;stroke:#637583;stroke-miterlimit:10}.gst1{stroke-dasharray:5.9374,7.9165}</style><path class="gst0" d="M8 7.8c.6.8 1.3 1.6 1.9 2.3"/><path class="gst1" d="M14.9 16.3C85.2 99.7 179 144.9 346 154.5"/><path class="gst0" d="M350 154.7c1 .1 2 .1 3 .2"/></svg><svg id="lines4" viewBox="0 0 172 170.7" width="172" height="170.7" x="365.3" y="311.2" xmlns="http://www.w3.org/2000/svg"><style>.hst0{fill-rule:evenodd;clip-rule:evenodd;fill:none;stroke:#637583;stroke-miterlimit:10;stroke-dasharray:6,8}</style><path class="hst0" d="M6.6 158.3c78.5-23.7 139.4-76.2 161-146"/></svg><svg id="logo_chimchim" viewBox="0 0 221.1 221.1" width="221.1" height="221.1" y="547.1999999999999" xmlns="http://www.w3.org/2000/svg"><style>.ist0{fill:#fff}</style><circle cx="110.6" cy="110.6" r="110.6"/><path class="ist0" d="M61.2 157.4c-2.5 0-4.5 2-4.5 4.5s2 4.5 4.5 4.5 4.5-2 4.5-4.5c0-2.4-2-4.5-4.5-4.5zm0 8.3c-2.1 0-3.7-1.7-3.7-3.7 0-2.1 1.7-3.7 3.7-3.7 2.1 0 3.7 1.7 3.7 3.7s-1.7 3.7-3.7 3.7zM47.6 90.1c1.8 1.6 3.8 2.8 6.1 3.4 2.1.6 4.1.9 6.1.8h2.1c1.5-.1 2.7-.4 3.8-.9 1.1-.5 2-.9 2.8-1.4.3-.2.5-.4.8-.5v10.1c0 1.3.2 2.4.5 3.2.3.8.8 1.5 1.5 2 .6.5 1.4.8 2.2 1 .8.2 1.8.2 2.8.2h4.5V61.8c0-1.3-.2-2.4-.5-3.2-.3-.9-.8-1.5-1.5-2-.6-.5-1.4-.8-2.2-1-.8-.2-1.8-.2-2.8-.2h-4.5V75c0 2.4-.3 4.3-.8 5.9-.6 1.6-1.3 2.8-2.2 3.8-.9.9-1.9 1.6-3.1 2-.8.3-1.5.4-2.3.5-1-.1-2-.3-2.9-.7-1-.4-1.9-1.1-2.6-2.1-.8-1-1.3-2.3-1.8-4-.4-1.7-.6-3.8-.6-6.3V61.2c0-.6 0-1.2-.1-1.7v-.1c-.1-.6-.2-1.1-.4-1.5-.3-.8-.8-1.5-1.4-2-.6-.5-1.3-.8-2.2-1-.9-.2-1.9-.2-2.9-.2h-4.6v19.8c0 3.6.6 6.7 1.7 9.3 1.2 2.6 2.6 4.7 4.5 6.3zm14.9 73.1c-.1-.3-.2-.5-.3-.6-.1-.1-.1-.2-.1-.3v-.1-.1l.3-.3c.1-.1.2-.2.3-.4.1-.1.1-.3.2-.4 0-.1.1-.3.1-.4 0-.5-.1-.8-.4-1.1-.3-.3-.7-.4-1.2-.4h-1.5c-.1 0-.1 0-.1.1v5.1c0 .1 0 .1.1.1h.5c.1 0 .1 0 .1-.1v-2c0-.1 0-.1.1-.1h.9v.1l.9 1.9c0 .1.1.1.1.1h.6v-.2c-.3-.2-.4-.6-.6-.9zm-.8-1.5s-.1 0 0 0h-1.1s-.1 0-.1-.1v-1.7s0-.1.1-.1h.7c.2 0 .4 0 .5.1.1.1.2.1.3.2.1.1.1.2.1.3v.3c0 .1 0 .3-.1.5-.2.3-.3.4-.4.5zm62.2-47.6c-.6-.5-1.4-.8-2.2-.9-.8-.2-1.8-.2-2.8-.2h-4.5v34c0 2.4-.3 4.4-.8 6-.6 1.6-1.3 2.8-2.2 3.8-.9 1-1.9 1.6-3.1 2-.8.2-1.5.4-2.3.4-1-.1-2-.3-2.9-.7-1-.4-1.9-1.1-2.6-2.1-.8-1-1.3-2.3-1.8-3.9-.4-1.6-.6-3.8-.6-6.3v-26.8c0-1.3-.2-2.4-.5-3.2-.3-.8-.8-1.5-1.5-2-.6-.5-1.4-.8-2.2-.9-.8-.2-1.8-.2-2.8-.2h-4.5v33.7c0 3.6.6 6.7 1.7 9.3 1.1 2.6 2.6 4.7 4.4 6.3 1.8 1.6 3.8 2.8 6.1 3.5 2.1.6 4.1.9 6.2.8h2.1c1.2-.1 2.3-.3 3.3-.7 1-.4 1.9-.8 2.7-1.2.8-.5 1.4-.9 2-1.4h.1c.5.9 1.2 1.6 2 1.9 1.2.5 2.6.7 4.2.7h4.5v-46.5c0-1.3-.2-2.4-.5-3.2-.3-1.1-.8-1.8-1.5-2.2zm53.9 0c-.6-.5-1.4-.8-2.2-1-.8-.2-1.7-.2-2.7-.2h-5l-11.8 30.3-8.9-22.6c-1-2-2.1-3.5-3.3-4.5-1.2-1-2.4-1.8-3.7-2.3-1.3-.5-2.5-.7-3.7-.8-1.2-.1-1.2 0-2.1 0h-2.2v46.4c0 1.3.2 2.4.5 3.2.3.8.8 1.5 1.4 2 .6.5 1.4.8 2.2 1 .8.2 1.7.2 2.7.2h3.6l.1-29.2 7.6 19.7c1.1 2.2 1.8 3.5 4 4.9.8.5 1.6.9 2.3 1 .8.2 2.5.2 3.3 0 3.5-8.9 6.1-17.8 9.6-26.7l.1 23.6c0 1.3.2 2.4.5 3.2.3.9.8 1.5 1.4 2 .6.5 1.4.8 2.2 1 .8.2 1.7.3 2.7.3l3.4.1v-46.4c0-1.3-.2-2.4-.5-3.2-.4-.8-.9-1.5-1.5-2zm1.4-55.6c-.3-.8-.8-1.5-1.4-2-.6-.5-1.4-.8-2.2-1-.8-.2-1.7-.2-2.7-.2h-5l-11.8 30.3-8.9-22.6c-1-2-2.1-3.5-3.3-4.5-1.2-1-2.4-1.8-3.7-2.3-1.3-.5-2.5-.7-3.7-.8-1.2-.1-1.2 0-2.1 0h-2.2v46.4c0 1.3.2 2.4.5 3.2.3.8.8 1.5 1.4 2 .6.5 1.4.8 2.2 1 .8.2 1.7.2 2.7.2h3.7V79l7.6 19.7c1.1 2.2 1.8 3.5 4 4.8.8.5 1.6.9 2.3 1 .8.2 2.5.2 3.3 0 3.5-8.9 6.1-17.8 9.6-26.7l.1 23.6c0 1.3.2 2.4.5 3.2.3.9.8 1.5 1.4 2 .6.5 1.4.8 2.2 1 .8.2 1.7.2 2.7.2l3.4.1V61.7c-.1-1.3-.3-2.4-.6-3.2zm-100.4 56c-.6-.5-1.4-.8-2.2-1-.8-.2-1.8-.2-2.8-.2h-4.6v19.9c0 2.4-.3 4.3-.8 5.9-.6 1.6-1.3 2.9-2.2 3.8-.9.9-1.9 1.6-3.1 2-.8.3-1.5.4-2.3.5-1-.1-2-.3-2.9-.7-1-.4-1.9-1.1-2.6-2.1-.8-1-1.3-2.3-1.8-4-.4-1.7-.6-3.8-.6-6.3v-12.7c0-1.3-.2-2.4-.5-3.2-.3-.8-.8-1.5-1.5-2-.6-.5-1.4-.8-2.2-1-.8-.2-1.8-.2-2.8-.2h-4.5v19.6c0 3.6.6 6.7 1.7 9.3 1.1 2.6 2.6 4.7 4.4 6.3 1.8 1.6 3.8 2.8 6.1 3.4 2.1.6 4.1.9 6.1.8h2.1c1.5-.1 2.7-.4 3.8-.9 1.1-.5 2-.9 2.8-1.4.3-.2.5-.4.8-.5V160c0 1.3.2 2.4.5 3.2.3.8.8 1.5 1.5 2 .6.5 1.4.8 2.2 1 .8.2 1.8.2 2.8.2h4.5l.1-46.7c0-1.3-.2-2.4-.5-3.2-.4-.9-.9-1.6-1.5-2zm45.1-58.7c-.6-.5-1.4-.8-2.2-.9-.8-.2-1.8-.2-2.8-.2h-4.5v34.1c0 2.4-.3 4.4-.8 6-.6 1.6-1.3 2.8-2.2 3.8-.9 1-1.9 1.6-3.1 2-.8.2-1.5.4-2.3.4-1-.1-2-.3-2.9-.7-1-.4-1.9-1.1-2.6-2.1-.8-1-1.3-2.3-1.8-3.9-.4-1.6-.6-3.8-.6-6.3V61.1c0-1.3-.2-2.4-.5-3.2-.3-.8-.8-1.5-1.5-2-.6-.5-1.4-.8-2.2-.9-.8-.2-1.8-.2-2.8-.2h-4.5v33.7c0 3.6.6 6.7 1.7 9.3 1.1 2.6 2.6 4.7 4.4 6.3 1.8 1.6 3.8 2.8 6.1 3.4 2.1.6 4.1.9 6.2.8h2.1c1.2-.1 2.3-.3 3.3-.7 1-.4 1.9-.8 2.7-1.2.8-.5 1.4-.9 2-1.4h.1c.5.9 1.2 1.6 2 1.9 1.2.5 2.6.7 4.2.7h4.5V61.1c0-1.3-.2-2.4-.5-3.2-.3-.9-.8-1.6-1.5-2.1z"/></svg><svg id="logo_rechimedia" viewBox="0 0 322 271" width="322" height="271" x="548.4" xmlns="http://www.w3.org/2000/svg"><style>.jst0{fill-rule:evenodd;clip-rule:evenodd;fill:#d24a44}</style><path class="jst0" d="M108.2 5.8H57.6v51.1h50.6V5.8zm-52.6 0H5l50.6 51.1V5.8zm54.3 51.1h50.6V5.8h-50.6v51.1zM212.6 5.8H162v51.1h50.6V5.8zm1.2 0v51.1h50.6L213.8 5.8zm0 103.6h50.6V58.3h-50.6v51.1zm-50.6 52.3h50.6v-51.1h-50.6v51.1zm50.6 51.4h50.6V162h-50.6v51.1zm50.6 0v51.1H315v-51.1h-50.6zM57.6 265.2h50.6v-51.1H57.6v51.1zm-1.2 0v-51.1H5.8l50.6 51.1zm51.8-51.1h50.6V163h-50.6v51.1zm-51.8-52.5H5.8v51.1h50.6v-51.1zm-50.6-1.1h50.6v-51.1H5.8v51.1z"/></svg></svg>